<?xml version="1.0" standalone="no"?>
<!DOCTYPE svg PUBLIC "-//W3C//DTD SVG 1.1//EN" "http://www.w3.org/Graphics/SVG/1.1/DTD/svg11.dtd" >
<svg xmlns="http://www.w3.org/2000/svg">
<metadata>
This is a custom SVG webfont generated by Font Squirrel.
Copyright   :  thebend aka Dimitri Castrique 2007 wwwthebendbe
Designer    : Dimitri Castrique
Foundry     : Dimitri Castrique
Foundry URL : FREE
</metadata>
<defs>
<font id="webfontDLSNh18m" horiz-adv-x="929" >
<font-face units-per-em="2048" ascent="1638" descent="-410" />
<missing-glyph horiz-adv-x="464" />
<glyph unicode=" "  horiz-adv-x="464" />
<glyph unicode="&#x09;" horiz-adv-x="464" />
<glyph unicode="&#xa0;" horiz-adv-x="464" />
<glyph unicode="!" horiz-adv-x="415" d="M76 109q0 123 127 122q70 0 92 -27.5t20 -91t-28.5 -97t-96.5 -33.5q-61 0 -87.5 30.5t-26.5 96.5zM78 1286q6 59 229 60q25 -63 25 -129q-2 -111 -27 -553l-10 -164q-10 -86 -164 -86l-18 10q-6 152 -9 197q-20 446 -26 665z" />
<glyph unicode="&#x22;" horiz-adv-x="600" d="M51 1452q61 35 135 35q23 0 35 -4q39 -18 39 -86v-17q-4 -86 -18.5 -191.5t-28.5 -131.5l-2 -2q-6 -10 -57.5 -19.5t-77.5 -9.5q0 59 -10 188q-15 226 -15 238zM342 1452q57 35 135 35q23 0 35 -4q39 -18 39 -86v-17q-4 -86 -18.5 -191.5t-28.5 -131.5l-2 -2 q-6 -10 -57.5 -19.5t-77.5 -9.5q0 59 -11 188q-14 226 -14 238z" />
<glyph unicode="#" horiz-adv-x="909" d="M43 483q0 6 33 72h117q2 18 7 55t9 58q2 20 7 54t7 54h-135v43q-6 16 -6 27q0 4 13.5 35.5t19.5 40.5h127q2 14 2 45q2 43 6 64.5t19.5 50t54 41t100.5 12.5q16 -16 16 -33q0 -49 -18 -131l-10 -49h147q2 12 2 39q2 41 5 63.5t18.5 52t54.5 44t102 14.5q14 -14 15 -31 q0 -45 -17 -123q-2 -10 -5 -29.5t-5 -29.5h115v-48q8 -14 8 -28q0 -4 -13.5 -32t-21.5 -38h-108q-6 -59 -17 -112q-4 -20 -8 -54.5t-6 -54.5h133v-45q8 -10 8 -27q0 -2 -12 -34.5t-19 -38.5h-131q-2 -14 -2 -56q-2 -47 -6 -70.5t-20.5 -56t-53 -47t-98.5 -14.5 q-18 12 -18 33q0 43 22 159l11 52h-152q-2 -6 -3 -22.5t-1 -22.5q-18 -197 -88 -197q-27 0 -84 14q-4 0 -15.5 1t-13.5 1l20 109q13 76 19 117h-123q0 39 2 49q-10 16 -10 24zM362 555h150q16 158 27 221h-150q-2 -20 -7 -58l-7 -54z" />
<glyph unicode="$" d="M94 94q0 25 16.5 71t36.5 73q111 -80 248 -80q184 0 185 145q0 53 -29 99.5t-102 105.5q-37 37 -64 59q-18 18 -39 35q-2 2 -3 2t-3 2h2q-98 80 -137 123q-96 106 -96 207q0 94 69.5 172t198.5 106l18 166q0 45 45 59.5t146 14.5l-21 -235q166 -14 211 -78 q0 -47 -39 -105q-16 -10 -39 -10q-25 0 -41 8q-72 29 -147 29q-82 0 -127 -34t-45 -97v-6q10 -53 68 -115q33 -33 153 -133l35 -29q66 -49 90 -76q127 -106 127 -258q0 -117 -76 -201.5t-205 -117.5l-18 -162q0 -45 -43 -59.5t-147 -14.5l20 226q-152 12 -215 63 q-33 29 -33 45z" />
<glyph unicode="%" horiz-adv-x="1454" d="M78 983q0 164 77.5 264.5t225.5 100.5q139 0 213 -83t74 -278q0 -170 -76 -268t-221 -98q-141 0 -217 81.5t-76 280.5zM240 14q139 254 790 1323q27 37 45.5 37t46.5 -16q51 -33 56 -62l-783 -1302h2q-33 -53 -59 -53h-6q-16 6 -53 30.5t-39 42.5zM266 981 q0 -225 107 -225q113 0 112 231q0 227 -108 227q-51 0 -81 -59t-30 -174zM766 338q0 164 79 265.5t226 101.5q137 0 211 -84t74 -279q0 -170 -76 -267.5t-219 -97.5t-219 80t-76 281zM950 336q0 -227 111 -227q49 0 79.5 58t30.5 173q0 227 -106 227q-115 0 -115 -231z" />
<glyph unicode="&#x26;" horiz-adv-x="1208" d="M41 348q0 205 231 373q-135 184 -135 346q0 135 95.5 215t248.5 80q104 0 168 -25.5t64 -66.5q0 -14 -16.5 -55t-37.5 -70q-86 63 -174 63q-68 0 -109.5 -37.5t-41.5 -113.5q0 -86 97 -222.5t261 -322.5l21 -20q10 -10 18 -20l19 -21q111 231 110 383q0 23 -4 45l16 12 q47 12 154 18h14h51q24 0 39 -17.5t15 -53.5q0 -23 -18.5 -37.5t-71.5 -40.5h-33v-23q0 -209 -131 -430l55 -53q160 -150 176 -160q-10 -57 -49 -82.5t-84 -25.5q-33 0 -49 10t-59 53q-12 10 -40 39l-55 55q-141 -158 -354 -157q-188 0 -289.5 100t-101.5 262zM244 350 q0 -86 51 -142t139 -56q121 0 225 120q-180 184 -286 324q-129 -103 -129 -246z" />
<glyph unicode="'" horiz-adv-x="307" d="M49 1452q61 35 135 35q23 0 35 -4q39 -18 39 -86v-17q-4 -86 -18.5 -191.5t-28.5 -131.5l-2 -2q-6 -10 -57.5 -19.5t-77.5 -9.5q0 59 -11 188q-14 226 -14 238z" />
<glyph unicode="(" horiz-adv-x="659" d="M109 580q0 193 37.5 363.5t97 287.5t120 194.5t117.5 118.5q90 -18 105 -119q-276 -319 -277 -825q0 -281 78 -508t199 -348q-27 -121 -115 -121q-43 20 -99.5 91t-117.5 185.5t-103 296t-42 384.5z" />
<glyph unicode=")" horiz-adv-x="659" d="M55 -250q123 141 199 357.5t76 484.5v10q0 264 -74 480t-201 350q25 111 115 110q41 -20 97.5 -88t117.5 -178.5t103 -285.5t42 -372q0 -369 -119.5 -637t-250.5 -360q-47 8 -74 44t-31 85z" />
<glyph unicode="*" horiz-adv-x="921" d="M97 1053.5q-1 29.5 16.5 63.5t40.5 61l260 -121l2 -2q6 -6 18 -15l-37 285q-2 25 16.5 35t53.5 10q57 0 106 -24l-32 -277q-6 -29 -23.5 -36t-81.5 3q18 -23 -12 -73l-297 55q-29 6 -30 35.5zM186 729l195 207v2q18 23 40.5 19.5t55.5 -39.5q10 14 64 40l204 -213 q29 -33 -18 -67.5t-106 -46.5l-140 250q-6 12 -6 22l-129 -241q-20 -31 -51 -24t-60 32.5t-49 58.5zM514 1028l266 127q45 23 68.5 -29.5t15.5 -111.5l-284 -53q-31 -6 -46.5 7t-19.5 60z" />
<glyph unicode="+" horiz-adv-x="1021" d="M84 471q0 84 14.5 120t53.5 36h268v157q0 63 -4 146q25 27 145 31q39 -18 39 -82v-252h336q0 -86 -13.5 -121t-56.5 -35h-266v-266q2 -27 -10 -45.5t-24.5 -27.5t-45.5 -13t-46 -4h-54v356h-336z" />
<glyph unicode="," horiz-adv-x="395" d="M0 -199q2 2 8 14.5t8 14.5q23 35 27 42l20 36q16 29 20.5 42t10.5 36.5t8 46.5q-14 8 -14 16q-10 33 -14 41q-16 59 -17 66q16 37 54.5 60.5t83.5 23.5q74 0 100.5 -28t21.5 -101q0 -20 -2 -29q-8 -82 -62 -167t-108 -124h2q-20 -16 -63 -16q-45 -1 -84 26z" />
<glyph unicode="-" horiz-adv-x="598" d="M55 442q14 154 70 156q131 12 352 41q25 -2 64 -23q-10 -143 -90 -153h2q-207 -33 -332 -33q-33 0 -66 12z" />
<glyph unicode="." horiz-adv-x="395" d="M57 111q0 127 140 127q76 0 101.5 -29t23 -94.5t-32 -100t-107.5 -34.5q-70 0 -97.5 31.5t-27.5 99.5z" />
<glyph unicode="/" horiz-adv-x="737" d="M29 -115l440 1493q8 29 21.5 40.5t50.5 15.5q51 6 123 4l20 -13l-221 -759l-172 -590q-35 -125 -78 -166q-18 -16 -51 -20.5t-133 -4.5z" />
<glyph unicode="0" d="M47 606q0 410 193 555q92 72 221 72q401 0 401 -600q0 -662 -413 -662q-402 0 -402 635zM270 600q0 -469 185 -469q186 0 186 510q0 434 -178 434q-88 0 -140.5 -115.5t-52.5 -359.5z" />
<glyph unicode="1" horiz-adv-x="804" d="M121 1040q14 27 57 70q199 74 389 125q41 -12 64 -27q-6 -317 -10 -1040l55 -18q78 -25 78 -41q0 -57 -5.5 -76t-25.5 -27q-35 -6 -57 -6q-4 0 -11.5 -1t-9.5 -1q-238 -4 -393 -4v51q0 8 -1 26.5t-1 28.5q0 14 17.5 25.5t31.5 15.5t53 17q4 2 19.5 6t25.5 8q6 326 13 854 q-188 -49 -260 -65q-27 48 -29 79z" />
<glyph unicode="2" d="M57 59q8 57 45 111l197 244q133 162 200.5 273.5t67.5 203.5q0 168 -155 168q-129 0 -246 -78h2l-35 -14q-29 0 -43 43t-14 73q37 66 144.5 108t238.5 42q338 0 338 -318q0 -20 -4 -53q-16 -133 -136 -299q-16 -23 -137 -172q-90 -104 -180 -223q84 -2 262 -2q23 0 164 6 q29 2 88 2q-14 -160 -78 -166q-123 -10 -219 -10q-354 0 -483 8q-15 35 -17 53z" />
<glyph unicode="3" d="M76 8q0 35 16 90q106 -63 223 -63q137 0 216 84t75 211q0 2 -1 8t-1 10q0 16 -2 23q-20 162 -264 161q-39 0 -92 -6q0 23 -2 27q-4 12 -4 22q10 55 28 80q268 104 269 269q0 137 -138 137q-127 0 -225 -72q-14 -10 -31 -10q-18 0 -32 20q-18 35 -19 86v11q25 55 123 96 t229 41q174 0 249 -81t75 -185q0 -90 -47 -168q-53 -82 -152 -150q127 -29 196 -109.5t69 -205.5q0 -219 -143.5 -342t-364.5 -123q-156 0 -215 51h2q-37 33 -37 88z" />
<glyph unicode="4" d="M25 430q57 141 213.5 403.5t246.5 342.5q47 47 140 63q31 0 77 -10h15l8 -2q0 -31 -1 -101.5t-1 -103.5v-195q0 -254 -2 -378q74 6 135 6q2 -6 5 -13.5t3 -9.5q8 -16 8 -33q-31 -78 -98 -98q-16 -4 -47 -4h-6v-227q0 -68 -68 -80q-43 -6 -151 -6v241q0 12 1 34t1 36 q-264 0 -416 16q-51 49 -63 119zM246 453q111 -6 258 -7q4 63 8 232v43q0 14 1 43t1 41q0 55 2 113q-157 -207 -270 -465z" />
<glyph unicode="5" d="M82 633q20 162 74 467q2 8 10 55t12 64q256 0 610 16l-8 -119q-4 -25 -35 -31h3q-94 -23 -406 -26q-33 -170 -47 -283h16q8 0 44 -2t61 -4q68 -8 94 -14q297 -63 319 -322q0 -6 1 -19.5t1 -19.5v-37q0 -35 -2 -51v2q-12 -205 -146 -321.5t-349 -118.5q-98 0 -157.5 21.5 t-72.5 43.5q-16 55 -16 99q0 23 10 57q82 -57 211 -57q131 0 215 91t84 230q0 190 -180 240q-84 23 -219 33q-70 6 -127 6z" />
<glyph unicode="6" d="M45 481q0 86 4 133q23 340 166 523q176 225 440 225q147 0 166 -70q0 -47 -12 -84q-301 16 -428 -153q-92 -121 -121 -328q-2 -6 -2 -17.5t-2 -17.5q-14 -104 -14 -182q0 -190 58 -285.5t157 -95.5q86 0 142 79t56 220q0 199 -129 231h2q-16 4 -28 5q-33 0 -127 -25v57 q0 86 53 111q49 23 117 22q27 0 37 -2h-2q139 -12 207.5 -119.5t68.5 -258.5q0 -217 -103.5 -346.5t-308.5 -129.5q-184 0 -288.5 126t-108.5 382z" />
<glyph unicode="7" horiz-adv-x="884" d="M66 1122q0 49 32 129q74 -20 189 -20h557q-31 -96 -39 -127q0 -2 -2 -6v-4q-47 -150 -289 -729q-133 -303 -184 -459q-31 -2 -68 -1t-69.5 4t-53 13t-18.5 27l2 2q82 215 321 770l150 348q-72 -2 -315 -2q-119 0 -205 29q-8 16 -8 26z" />
<glyph unicode="8" d="M53 340q0 113 68 207q55 72 170 147q-90 61 -135 113q-68 80 -68 186q0 158 101.5 253t265.5 95q4 0 14 -1t16 -1h29q150 -10 228.5 -98t78.5 -219q0 -106 -67 -197q-37 -49 -140 -123q27 -16 62 -43l35 -26h-2q147 -123 147 -287q0 -160 -106.5 -263t-292.5 -103 q-211 0 -307.5 106.5t-96.5 253.5zM258 350q0 -98 57.5 -154.5t141.5 -56.5q76 0 131 52.5t55 144.5q0 59 -16.5 95t-57.5 71q-49 49 -135 100q-176 -115 -176 -252zM297 1014q0 -78 65 -137q35 -37 115 -86q147 102 148 223q0 80 -46.5 124t-115.5 44q-68 0 -117 -43 t-49 -125z" />
<glyph unicode="9" d="M43 782q0 213 106.5 338t307.5 125q213 0 298 -133t89 -444q-4 -436 -230 -654q-82 -72 -184 -109.5t-176 -37.5h-18q-92 2 -113 35q-23 45 -23 112q31 -6 52 -6q90 -2 190 47t170 129q96 143 121 314q12 88 12 190q0 401 -194 402q-96 0 -151.5 -78t-55.5 -211 q0 -100 35.5 -158.5t95.5 -73.5h-2q33 -4 47 -4q45 0 108 19q4 -29 4 -64q0 -72 -51 -102q-49 -20 -112 -21h-17q-4 0 -10 1t-10 1q-139 18 -214 123.5t-75 259.5z" />
<glyph unicode=":" horiz-adv-x="395" d="M57 111q0 127 140 127q76 0 101.5 -29t23 -94.5t-33 -100t-104.5 -34.5q-68 0 -97.5 31.5t-29.5 99.5zM57 766q0 127 140 127q76 0 101.5 -28.5t23 -94t-32 -100.5t-105.5 -35q-68 0 -97.5 31.5t-29.5 99.5z" />
<glyph unicode=";" horiz-adv-x="395" d="M0 -199q2 2 8 14.5t8 14.5q23 35 27 42l20 36q16 29 20.5 42t10.5 36.5t8 46.5q-10 6 -14 16q-10 33 -14 41q-16 59 -17 66q16 37 54.5 60.5t83.5 23.5q74 0 100.5 -28t21.5 -101q0 -20 -2 -29q-8 -82 -62 -167t-108 -124h2q-20 -16 -63 -16q-45 -1 -84 26zM57 766 q0 127 140 127q76 0 101.5 -28.5t23 -94t-32 -100.5t-105.5 -35q-70 0 -98.5 30.5t-28.5 100.5z" />
<glyph unicode="&#x3c;" horiz-adv-x="937" d="M80 637q0 49 18 70l574 436q35 25 59 20q35 -8 53 -41q18 -41 19 -94l-496 -379l498 -364q0 -57 -25 -107q-18 -31 -47 -33q-33 -4 -61 17l-553 411q-39 35 -39 64z" />
<glyph unicode="=" horiz-adv-x="1021" d="M84 285q2 78 16.5 111.5t53.5 33.5h784q-2 -84 -15.5 -120t-54.5 -36h-764zM84 672q2 82 15.5 113.5t54.5 31.5h784q-2 -84 -15.5 -119.5t-54.5 -35.5h-764z" />
<glyph unicode="&#x3e;" horiz-adv-x="931" d="M123 1014q0 61 24 106q20 31 52 33q37 4 59 -16h-2l557 -412q37 -33 37 -61q0 -51 -25 -76l-567 -432q-33 -27 -61 -21q-35 8 -54 41q-12 27 -18 96l498 377z" />
<glyph unicode="?" horiz-adv-x="659" d="M45 1239q31 51 114 81t169 30q289 0 288 -277q0 -92 -35.5 -163.5t-107.5 -161.5q-96 -125 -96 -209q0 -18 10 -70q4 -29 4 -41q-20 -33 -92 -33q-88 0 -113 86q-10 41 -10 82q0 61 27 121q23 51 82 133l16 25q35 47 48 67.5t29.5 61.5t16.5 78q0 61 -32.5 93t-86.5 32 q-72 0 -155 -54q-33 4 -54.5 34t-21.5 85zM180 109q0 123 127 122q70 0 92.5 -27.5t20.5 -91t-28.5 -97t-96.5 -33.5q-61 0 -88 30.5t-27 96.5z" />
<glyph unicode="@" horiz-adv-x="1521" d="M82 453q0 29 4 61q23 354 220.5 550t514.5 196q289 0 446.5 -153t157.5 -454q0 -170 -33.5 -296t-91 -191.5t-121 -96t-137.5 -30.5q-88 0 -131 43q-96 -53 -206 -53q-113 4 -176.5 56t-65.5 196q0 156 110 241q82 63 195 72q2 0 8 1t10 1h17q25 0 37 -2q0 23 2 33v-2 q6 72 -16.5 112.5t-77.5 38.5q-61 0 -127 -33q-29 -14 -72 -14q-23 27 -31 72q0 2 -2 6v6v8q0 14 6 23q29 31 103.5 58.5t156.5 27.5q160 0 211 -99q25 -43 31 -112q4 -37 4 -123q-2 -37 -2 -109q0 -10 -1 -30.5t-1 -30.5q0 -45 -2 -64q0 -92 -4 -157q16 -12 26 -12 q70 0 128.5 108.5t58.5 339.5q0 240 -102.5 353.5t-305.5 113.5q-262 0 -404.5 -166t-142.5 -498q0 -317 116 -457.5t347 -140.5q113 4 258 41h-2q104 29 146 23l14 -4q31 -49 35 -101l-2 -2q-4 0 -4 -2q-80 -49 -94 -55q-201 -66 -379 -65q-295 0 -466 188.5t-163 583.5z M653 272q0 -2 1 -7t1 -7v-12q8 -57 47 -68h-2q16 -2 50 2q68 10 86 86q0 29 2 98.5t2 98.5q-94 -4 -140.5 -46.5t-46.5 -144.5z" />
<glyph unicode="A" horiz-adv-x="1091" d="M12 10q8 55 19 80l188 543q160 436 234 670q14 51 39 51q2 0 10 4q16 4 28 4q20 2 64 2q33 -6 55 -31l148 -452l153 -455h-2q76 -207 101 -291q20 -70 30 -100l2 -4q0 -8 -12 -21q-51 -18 -129 -18q-47 0 -92 37l-4 4q-16 47 -45 141l-60 195h-389l-117 -342 q-12 -35 -79 -35q-60 0 -142 18zM403 532h285q-8 25 -29 97l-22 83q-14 52 -21 70q-53 162 -67 222l-107 -345l2 3z" />
<glyph unicode="B" d="M106 8v1284q0 31 3 45q20 10 71 15q96 10 226 10q199 0 295 -85t96 -224q0 -174 -107 -265l-47 -30q31 -8 59 -27q166 -104 166 -291q0 -223 -128 -336.5t-334 -113.5q-144 2 -300 18zM324 150q37 -6 88 -7q96 0 156.5 74t60.5 219q0 27 -2 41q-12 100 -68.5 140 t-152.5 40q-59 0 -82 -2v-505zM324 809q16 2 55 2q8 0 23.5 1t19.5 1q29 0 65 6h-4q88 45 88 203q0 23 -2 33q-14 154 -172 153q-29 0 -73 -4v-395z" />
<glyph unicode="C" horiz-adv-x="972" d="M55 645q0 385 181 584q147 158 393 157q121 0 198.5 -35.5t98.5 -74.5q0 -66 -35 -111h-23q-16 -2 -49 15q-2 0 -7 2t-7 4v-2q-49 20 -90 28q-33 4 -62 5q-27 0 -41 -3q-145 -14 -236 -150t-91 -409q0 -504 352 -503q66 0 137.5 21.5t112.5 45.5q25 -41 28 -84 q-6 -59 -53 -98q-76 -68 -254 -68q-270 0 -411.5 154.5t-141.5 521.5z" />
<glyph unicode="D" horiz-adv-x="1099" d="M109 12v1186q0 102 28 143l15 5q137 16 286 16q168 0 286 -46t181.5 -134t91 -198t27.5 -255q0 -422 -190 -604q-145 -135 -390 -135q-155 -1 -335 22zM328 160q53 -6 123 -6q336 0 335 575q0 223 -63.5 330.5t-196.5 130.5q-51 12 -116 12q-59 0 -82 -2v-1040z" />
<glyph unicode="E" horiz-adv-x="804" d="M102 1323l58 20q39 12 65 15h510q-4 -82 -15 -113t-40 -41q-59 -10 -195 -10h-159v-393h376q-12 -104 -31.5 -134t-68.5 -30h-276v-475q39 -4 149 -4q205 0 289 2q-8 -84 -26.5 -118t-59.5 -44q-102 -4 -242 -4q-195 0 -313 12q-10 47 -17 88v971q0 176 -4 258z" />
<glyph unicode="F" horiz-adv-x="788" d="M102 1317q31 18 29 16q63 23 100 25h525q-6 -84 -18.5 -112.5t-43.5 -39.5q-29 -8 -131 -8h-237v-418h385q-6 -102 -27.5 -133t-73.5 -31h-284v-596q-66 -27 -113 -26q-63 0 -107 24v1076q0 92 -4 223z" />
<glyph unicode="G" horiz-adv-x="1085" d="M51 657q0 377 189 582q137 145 405 145q121 0 199 -35.5t98 -74.5q0 -45 -41 -100l-12 -3q-25 -4 -45 9h2q-2 0 -12 5l-15 7q-76 27 -162 27q-373 0 -372 -549q0 -535 348 -535q94 0 137 33v440q-51 2 -83 29t-38 108l15 13q12 14 24 14q96 6 279 6q18 -63 18 -217v-481 q-70 -49 -115 -70q-109 -41 -249 -41q-47 0 -68 2q-502 47 -502 686z" />
<glyph unicode="H" horiz-adv-x="1114" d="M104 -6q4 193 5 366v666q0 147 -5 303q33 33 197 33q27 -43 27 -137v-424h438v413q0 74 22 121q18 18 57.5 22.5t143.5 4.5q-4 -197 -4 -367v-669q0 -141 4 -297q-31 -35 -186 -35l-19 6q-18 49 -18 106v533q-41 -2 -197 -2h-241v-504q0 -72 -31 -115q-14 -16 -49 -20 t-144 -4z" />
<glyph unicode="I" horiz-adv-x="444" d="M98 1303q14 37 55.5 48t129.5 11q25 0 32 -32t7 -111v-254q0 -47 -1.5 -141.5t-1.5 -139.5q0 -47 1.5 -136t1.5 -130v-201q0 -45 1 -98t1 -62v-28q-27 -35 -185 -35q-37 0 -37 49v244q0 57 1 189t1 204q0 41 -1 122t-1 120v188q0 156 -4 193z" />
<glyph unicode="J" horiz-adv-x="585" d="M-33 -45q2 31 23 78q47 -10 69 -10q35 0 49.5 2t48 19t49 49t27.5 102q9 52 10 120q0 23 -1 47v682q0 133 -4 261q18 35 61 46t141 11q20 -35 21 -133v-838q0 -205 -27.5 -312.5t-116.5 -166.5q-51 -35 -124 -47q-20 -4 -64 -4q-47 0 -82 10q-33 10 -54.5 34.5 t-25.5 49.5z" />
<glyph unicode="K" horiz-adv-x="950" d="M102 1329q37 31 203 31q20 -39 21 -137v-422l110 155l285 402q25 4 55 4q6 0 20.5 -1t22.5 -1h35q68 -4 68 -39q0 -14 -15 -41q-4 -6 -12 -17l-15 -22q-7 -10 -11.5 -17t-2.5 -5l-348 -471q121 -123 318 -494q111 -197 131 -217q0 -23 -35 -37q-33 -12 -88 -12h-31 q-39 4 -69.5 32.5t-46 53t-35.5 69.5q-117 256 -252 408l-32 36q-15 17 -21.5 26.5t-14.5 17.5t-16 12v-362q0 -35 1 -88.5t1 -73.5v-92q-20 -33 -183 -33l-16 4q-23 33 -23 90v971q0 127 -4 270z" />
<glyph unicode="L" horiz-adv-x="792" d="M100 1319q20 27 59.5 35t129.5 8l18 -6q18 -45 19 -150v-1040q72 -6 174 -6q158 0 254 8q4 -45 4 -78q-14 -76 -80 -92q-78 -4 -205 -4q-193 0 -352 12q0 10 -3 29.5t-5 30.5q-4 37 -9 51v987q0 117 -4 215z" />
<glyph unicode="M" horiz-adv-x="1380" d="M61 18q10 180 89 1018q14 145 22 264q0 35 35 52q4 2 24 2q2 0 5.5 1t5.5 1q51 6 131 6q55 -113 207 -555q2 -4 2 -6t2 -6l-2 2l12 -35l27 -80q2 -10 10 -35.5t12 -40.5q12 -25 12 -33l-2 2l15 -47l30 80q16 49 21 60l18 55q14 43 23 61q70 186 84 230l104 293q2 0 4 4 t2 6l-2 -2q8 20 25 33q76 14 178 14q12 -39 19 -105q27 -365 61 -747v2q23 -207 41 -481q-12 -23 -56 -30t-147 -7q-29 43 -29 92q0 18 -4 47q-4 41 -4 66q0 12 -3 47t-5 55q-2 49 -10 145q0 10 -1 32t-3 30v-2q-4 29 -4 55q0 2 -6 201q0 12 -1.5 35.5t-1.5 36t-1 36 t-3 33.5q-59 -180 -108 -311l-111 -307q-2 -8 -12 -35t-16 -41l2 2q-14 -41 -60 -49q-35 -8 -112 -8l-105 315q-10 25 -26.5 79t-24.5 77l-59 180l-31 100v-49q0 -12 -1 -36.5t-1 -39.5q-6 -197 -6 -205q-33 -352 -41 -464q-2 -6 -2 -23q-8 -41 -21 -65q-31 -25 -84 -25 q-59 0 -94 6q-23 0 -23 14z" />
<glyph unicode="N" horiz-adv-x="1161" d="M84 1317l4 20q41 25 156 25q35 0 80 -27q29 -59 184 -325l57 -103q6 -12 53 -90l68 -125l137 -280q-6 137 -6 313v494q0 70 21 112q35 23 62.5 27t129.5 4q-4 -242 -4 -430v-903q-55 -41 -108 -41q-61 0 -99 14q-49 94 -182 322v-2l-109 190l-82 152l-92 194q-4 8 -18 40 l-21 46q0 2 -2 4l-4 4q4 -90 10 -336v-477q0 -66 -18 -108q-25 -25 -58.5 -31t-138.5 -6q4 233 5 426v860q-25 29 -25 37z" />
<glyph unicode="O" horiz-adv-x="1191" d="M55 674q0 -705 527 -705q268 0 403 186.5t135 534.5q0 336 -131 516t-395 180q-262 0 -400.5 -181t-138.5 -531zM291 664q0 279 79 417t216 138t220 -133.5t83 -401.5q0 -545 -297 -545q-137 0 -219 133.5t-82 391.5z" />
<glyph unicode="P" horiz-adv-x="886" d="M100 1352q25 18 76 20q96 6 211 6q453 0 453 -426q0 -104 -33 -185t-88 -126t-111.5 -68.5t-115.5 -31.5q-37 0 -60.5 4t-46.5 26.5t-23 65.5q0 10 15.5 19.5t34.5 9.5q78 0 136 70.5t58 224.5q0 133 -56 193t-149 60q-59 0 -79 -2v-884l2 -226q0 -51 -25 -84 q-25 -25 -141 -24h-56q4 233 4 424l-4 872v27q0 6 -1 18.5t-1 16.5z" />
<glyph unicode="Q" horiz-adv-x="1198" d="M59 674q0 350 139.5 531t401.5 181q266 0 396 -180t130 -522q0 -600 -385 -696q16 -135 97 -164h-2q41 -10 67 -10q49 0 168 24q8 2 28.5 5t28.5 5q131 23 203 23q55 0 88 -8q78 -20 152 -99l-6 -16q-2 -2 -10.5 -21.5t-20.5 -43.5q-68 51 -160 59q-16 1 -33 1 q-103 0 -276 -40q-194 -47 -289 -47q-18 0 -33 2q-74 10 -135 73.5t-88.5 132t-30.5 120.5q-150 20 -248 117.5t-140 241t-42 331.5zM299 662q0 -256 82 -390.5t217 -134.5q295 0 295 545q0 530 -293 537q-301 0 -301 -557z" />
<glyph unicode="R" horiz-adv-x="948" d="M102 -6q4 238 4 424v682q0 133 -2 190q0 27 2 41q14 10 60 21h6l6 2q4 2 14.5 3t14.5 1h12q49 4 80 4h98q8 0 27.5 -1t28.5 -1q188 -10 280 -104.5t92 -286.5q0 -111 -65.5 -213.5t-126.5 -149.5q57 -82 203 -352q104 -190 125 -211l2 -2q6 -8 5 -15q0 -12 -19 -21 q-30 -13 -68 -15l-37 -2h-29q-90 8 -153 155q-121 256 -248 404q-4 0 -10.5 1t-10.5 1h-69v-447q0 -51 -23 -82q-16 -18 -47 -22t-111 -4h-41zM324 707h82q57 0 75 8q115 43 115 258q0 115 -50 176t-134 61q-43 0 -88 -4v-499z" />
<glyph unicode="S" horiz-adv-x="819" d="M41 94q0 55 55 142q115 -94 246 -95q84 0 134 51.5t50 141.5q0 63 -27.5 115.5t-97.5 115.5q-23 27 -73 78q-2 2 -11.5 10.5t-15.5 14.5l-25 24q-111 111 -126 131q-94 119 -95 240q0 135 95.5 229t287.5 94q115 0 189.5 -29.5t95.5 -60.5q0 -47 -35 -100 q-18 -12 -39 -12q-23 0 -43 10q-70 33 -149 33q-82 0 -127 -39t-45 -113v-26q10 -68 69 -134q59 -63 154 -151l8 -8q57 -51 115 -113q127 -133 127 -295q0 -174 -106.5 -276.5t-303.5 -102.5q-199 0 -276 74q-31 28 -31 51z" />
<glyph unicode="T" horiz-adv-x="958" d="M12 1229q0 47 19 92q6 16 30 41h29q4 0 14.5 -1t16.5 -1q45 -2 178 -2h639q0 -61 -14 -119q-8 -31 -60 -47h-289v-905q0 -133 5 -260q-25 -20 -62 -26.5t-135 -6.5q-25 43 -25 96v1102h-239q-53 0 -103 8q-4 17 -4 29z" />
<glyph unicode="U" horiz-adv-x="1150" d="M98 1325q29 37 201 37q27 -47 27 -162v-559q0 -131 14 -223q49 -283 233 -283q143 0 207 43l-8 -6q39 201 39 477l2 555q0 68 23 129q29 18 62.5 23.5t129.5 5.5q-4 -213 -4 -391v-322q0 -317 -55 -545q-113 -135 -408 -135q-225 0 -324.5 114t-123.5 327 q-10 113 -11 215v383q0 149 -4 317z" />
<glyph unicode="V" horiz-adv-x="1026" d="M14 1305q14 45 80 51q51 6 119 6q31 -35 53 -105q4 -14 17 -47q39 -154 118 -419l56 -193l37 -143q29 -102 38 -150l18 62l17 63q6 27 21 84l22 88l103 359q2 6 5 18t5 18l-2 -2q6 25 61 215q10 27 21 70q8 29 28 72q29 8 52 8h20q74 -4 109 -8q18 -6 18 -37 q0 -14 -8 -55q0 -6 -3 -17.5l-5 -19.5l-37 -127l-76 -256q-186 -657 -256 -813q-51 -35 -106 -41q-4 0 -8 -1q-27 0 -58 13q-35 14 -53 31l-19 14q-4 8 -16 39q-6 20 -20.5 63t-18.5 58l-168 561q-129 447 -164 541z" />
<glyph unicode="W" horiz-adv-x="1599" d="M35 1296q18 51 84 58q49 6 102 6q16 -2 33.5 -51t24.5 -80q37 -166 118 -502l31 -123q2 -14 10 -55l13 -62q8 -39 15 -67.5t15 -71.5l45 225l166 678q0 6 4 20.5t4 20.5q14 14 45 21q16 4 53.5 8t69.5 4q25 -33 39 -94l84 -340l30 -128q22 -93 36 -147q0 -6 4 -17t4 -17 q53 -250 53 -252q4 14 13.5 54t13.5 65l14 74l17 85q102 393 165 682l11 33l-2 -2q4 18 12 29q10 10 55 10q4 0 11.5 -1t11.5 -1q18 0 47 -4q41 0 72 -13v-14q0 -31 -13 -80l-45 -172q-4 -20 -15 -60l-16 -57q-10 -37 -43 -180q-162 -653 -200 -745q-2 0 -4 -2l-4 -4 q-59 -37 -95 -41q-4 0 -7 -1q-25 0 -55 12q-34 13 -54 28l-19 14q-2 4 -4 10t-2 10l2 -2l-8 27q-2 10 -6 25.5t-6 25.5l-93 369q-41 176 -81 383l-84 -381q-2 -6 -10 -37l-11 -47l-94 -383q-49 -41 -109 -49q-6 -1 -13 -1q-23 0 -49 11q-34 14 -52 31l-21 16v6l-8 21 q-8 23 -12 37q-16 59 -56 218l-55 224l-86 346q-25 106 -35 156q-45 206 -61 241z" />
<glyph unicode="X" horiz-adv-x="1038" d="M2 12l334 596l24 42l25 42l-176 332q-115 209 -154 289q0 23 25 30q88 18 190 19q20 -20 54 -80q72 -129 88 -162q80 -176 114 -237l66 131l61 121q43 76 72 139l25 47q0 2 4 8t4 8q18 23 59 23q51 0 156 -17q-10 -45 -15 -59q-109 -215 -319 -571q193 -334 365 -676 q2 -8 2 -19q-29 -27 -160 -26q-51 0 -98 24l-115 226q-2 2 -4 7t-4 7l-19 38l-16 34q-63 131 -92 180q-2 -2 -47 -88q-20 -43 -86 -164l-125 -227q-23 -33 -66 -33q-55 0 -102 8q-12 2 -31 6q-6 2 -39 2z" />
<glyph unicode="Y" horiz-adv-x="966" d="M8 1323q0 14 21.5 19.5t93.5 5.5h119q31 -74 123 -273q74 -172 118 -266l246 534q45 16 82 17q31 0 113 -8q6 -18 6 -32.5t-21 -68.5l-2 -2q2 0 1 -3t-3 -5q-33 -76 -162 -309q-94 -160 -133 -252q-20 -55 -26 -96v-295q0 -35 1 -90.5t1 -75.5v-94q-18 -23 -56 -30 t-145 -7q-20 49 -20 100v475q0 35 -3 43q-49 119 -108 232l-36 70l-44 86l-39 75z" />
<glyph unicode="Z" horiz-adv-x="976" d="M35 70v10q0 2 1 6t1 6v14q365 608 606 1090h-442q-123 0 -123 33v6q2 12 6 33q2 6 3 20.5t5 26.5q16 43 51 49q98 -6 125 -6l623 -6v-25q0 -2 1 -11t1 -13q0 -47 -27 -101q-176 -383 -555 -1042q117 -4 430 -4q47 0 154 8h14l15 2q5 -25 5 -49q0 -12 -1 -25 q-33 -84 -88 -92q-68 -6 -258 -6q-313 0 -514 8q-27 27 -31 51q0 4 -1 9.5t-1 7.5z" />
<glyph unicode="[" horiz-adv-x="753" d="M203 4v295q0 53 1 162.5t1 165.5q0 346 8 899q0 55 12 78q10 8 97.5 18t146.5 10h2q66 -10 193 -41q2 -2 14 -4t14 -4q0 -61 -11 -78.5t-54 -21.5q-10 0 -33 -1t-33 -3q-41 -2 -82 -6q-55 -8 -73 -17q0 -244 -3 -328q-4 -283 -4 -544q0 -485 2 -596q4 -72 19 -111 q14 -2 41.5 -3t42.5 -1q8 -2 29.5 -3t31.5 -1q66 -4 117 -19q0 -76 -10 -98t-41 -33q-164 0 -393 17q-4 0 -17.5 1t-15.5 1q-2 73 -2 266z" />
<glyph unicode="\" horiz-adv-x="688" d="M35 1395q0 43 131 43h39l20 -8l183 -678l184 -680q23 -84 22 -135q0 -16 -2 -27q-12 -23 -43.5 -29t-126.5 -6l-235 870l-170 629q-2 9 -2 21z" />
<glyph unicode="]" horiz-adv-x="753" d="M41 -231q0 63 11 80.5t57 19.5q4 0 10 1t8 1q23 2 127 8q43 4 72 17q0 14 1 66t1 73q6 522 6 733v250q0 266 -2 344q-4 74 -19 113q-12 2 -39.5 3t-42.5 1q-10 2 -31.5 3t-31.5 1q-66 4 -117 18q0 76 10.5 98.5t40.5 32.5q160 0 426 -20q2 -76 2 -264v-295q0 -53 -1 -164 t-1 -166q0 -346 -8 -899q0 -53 -14 -76q-10 -8 -96 -18.5t-146 -10.5h-2q-100 15 -221 50z" />
<glyph unicode="^" horiz-adv-x="796" d="M76 883l18 38l21 44q145 317 190 383q27 27 53 43q16 8 52 8l14 -4q47 -47 205 -348q20 -39 84 -148q-57 -82 -105 -82q-29 0 -55 31q-29 37 -143 270q-20 45 -27 58q-4 -6 -51 -113q-70 -160 -103 -207q-31 -35 -59 -35q-76 25 -94 62z" />
<glyph unicode="_" horiz-adv-x="899" d="M0 -199q0 115 27 144h872q0 -117 -27 -144h-872z" />
<glyph unicode="`" horiz-adv-x="657" d="M106 1382q0 18 19 43q47 66 106 66q23 -2 114 -107.5t120 -164.5q4 -8 4 -15q0 -25 -30.5 -54.5t-55.5 -31.5l-16 4q-23 27 -129 123q-72 68 -129 127q-3 4 -3 10z" />
<glyph unicode="a" horiz-adv-x="829" d="M35 254q0 88 37 153.5t96 101.5t113.5 54.5t111.5 24.5q18 2 60 2q33 0 45 -2v100q0 72 -14.5 101.5t-61.5 29.5q-70 0 -205 -51q-37 -16 -76 -16q-31 33 -41 88l2 -2q-4 12 -4 26q0 12 6 27q39 35 129.5 67.5t188.5 34.5q39 0 72 -2q119 -8 168 -79.5t49 -211.5v-90 q0 -156 -2 -231q0 -25 -1 -92.5t-1 -83.5v-23q0 -23 14 -43t43 -14q-4 -57 -4 -88q-37 -55 -127 -58q-68 0 -123 60l-45 -31q-57 -29 -158 -29q-115 0 -193.5 71t-78.5 206zM252 270q0 -127 88 -133h12q39 0 80 17.5t60 42.5l-3 -2q0 -2 3 10q2 10 2 14q4 25 4 96v136h-21 q-23 0 -63 -5h2q-164 -31 -164 -176z" />
<glyph unicode="b" horiz-adv-x="948" d="M100 1382q29 66 197 66q20 -49 20 -164v-348q100 57 215 57q158 0 253.5 -105.5t95.5 -324.5q0 -365 -203 -512q-113 -78 -277 -78q-178 0 -270 58l-6 4q-20 47 -21 119v1034q0 100 -4 194zM317 145q45 -18 101 -18q96 0 164.5 95t68.5 313q0 158 -49 226t-143 68 q-78 0 -142 -47v-637z" />
<glyph unicode="c" horiz-adv-x="774" d="M49 467q0 285 154 426q109 100 291 100q86 0 156.5 -31.5t80.5 -56.5v-2q0 -55 -33 -110h-24q-25 0 -68 14q-55 25 -108 24q-12 0 -23 -2q-203 -18 -203 -352q0 -342 238 -342q90 0 188 49q18 -55 19 -78q-4 -49 -53 -88q-68 -47 -191 -47q-94 0 -163.5 20.5t-132 72 t-95.5 152.5t-33 251z" />
<glyph unicode="d" horiz-adv-x="952" d="M51 451q0 262 139 417q113 125 283 125q82 0 137 -22v217q0 100 -4 194q29 66 199 66q18 -45 18 -164v-678v-229q0 -25 -1 -92.5t-1 -83.5v-23q0 -23 14.5 -42t43.5 -13q-4 -57 -5 -90q-39 -55 -126 -58h-8q-59 0 -115 60q-25 -20 -50 -33v2q-55 -31 -136 -31h-19 q-174 8 -271.5 118t-97.5 360zM281 471q0 -332 194 -332q88 0 131 54l-2 -3q4 4 4 25q2 23 2 96v496q-45 31 -108 31q-92 0 -156.5 -90.5t-64.5 -276.5z" />
<glyph unicode="e" horiz-adv-x="835" d="M51 449q0 283 109.5 413.5t298.5 130.5q141 0 220 -77.5t91 -215.5q4 -61 4 -98q0 -70 -10 -121q-47 -39 -160 -55q-96 -12 -264 -12h-72q2 -145 58.5 -208t158.5 -63q127 0 238 60q16 -49 20 -103q-2 -31 -43 -62.5t-90 -43.5h2q-76 -20 -159 -21q-188 0 -289 101 q-113 115 -113 375zM272 561h58q135 0 196 6q27 6 31 8q8 29 8 62q0 4 -1 11t-1 11v21q-14 162 -125 162h-8q-59 -8 -104.5 -79t-53.5 -202z" />
<glyph unicode="f" horiz-adv-x="559" d="M16 844q8 59 19.5 76.5t44.5 27.5q6 2 25.5 6t35.5 9q0 90 9 147v-2q8 98 44.5 169t93 107.5t114 52t118.5 15.5q127 0 166 -43h2q10 -14 10 -41q-4 -25 -12 -45q-12 -29 -22 -39q-27 -14 -50 -6q-8 6 -18 6q-27 8 -74 8q-152 0 -162 -205q-2 -41 -2 -120h88q86 0 136 4 q-4 -80 -15.5 -108.5t-42.5 -39.5l2 2q-2 -2 -11 -6t-13 -4q-39 -4 -146 -4q0 -338 4 -760q0 -39 -24 -47q-53 -10 -127 -10q-33 0 -66 6q-2 12 -2 55v121q0 18 1 60.5t1 64.5v248q0 45 -1 130t-1 132q-86 4 -125 33z" />
<glyph unicode="g" horiz-adv-x="882" d="M10 -426q-2 8 -2 18q0 65 91 158q103 106 227 189q39 -20 47 -63q2 -9 2 -18q0 -30 -23 -51q-130 -109 -129 -157q0 -27 51 -27q27 0 138 19q98 27 168.5 105.5t68.5 143.5v29q-29 78 -106 86q-45 6 -137 10q-6 0 -19.5 1t-19.5 1q-59 6 -109 19l-47 10q-150 45 -154 148 q0 16 27 49q16 16 52 49t46 41q6 4 9.5 9t7.5 9q-131 82 -131 279q0 170 100 266t262 96q84 0 182 -47q-6 4 0 8q20 0 71.5 2t74.5 5h-2q53 4 90 4q16 -33 16 -70q0 -92 -74 -92q-41 0 -65 2q47 -74 47 -166q0 -164 -93 -255t-259 -91q-49 0 -86 6l-41 -41q-10 -10 -10 -29 q0 -33 104 -43l80 -6q16 0 49 -4t49 -4q57 -4 74 -8q98 -18 157.5 -73.5t63.5 -143.5q0 -137 -127 -269.5t-313 -175.5q-96 -18 -191 -18q-190 0 -217 90zM283 641q16 -209 159 -209q68 0 98 63q23 49 23 121q0 20 -2 41q-20 199 -155 199q-63 0 -99 -55q-27 -43 -27 -115 q1 -21 3 -45z" />
<glyph unicode="h" horiz-adv-x="942" d="M98 4q4 233 4 420v772q0 98 -4 188q18 37 64.5 50.5t130.5 13.5q23 -43 22 -143v-390q33 23 99 54q63 25 139 24q156 0 214 -88t58 -301v-297q0 -207 2 -280q-18 -20 -55 -26.5t-145 -6.5q-18 49 -19 102v490q0 63 -4 84q-8 154 -110 153q-92 0 -179 -82v-612 q0 -66 -22 -106q-27 -20 -55.5 -24.5t-120.5 -4.5z" />
<glyph unicode="i" horiz-adv-x="434" d="M88 1307q0 123 127 123q68 0 91 -28q22 -25 22 -81q0 -71 -29 -108q-27 -34 -96 -33q-61 0 -88 29.5t-27 97.5zM94 915q27 57 187 58l16 -6q18 -37 18 -148v-686q0 -68 -28 -113q-10 -16 -42 -19t-149 -7v168q0 29 1 92t1 96v357q0 102 -4 208z" />
<glyph unicode="j" horiz-adv-x="442" d="M-154 -313q0 39 19 71h20q2 0 6.5 -1t6.5 -1q51 0 122 31q70 31 80 203q4 90 4 162v514q0 115 -4 249q27 57 185 58l18 -6q16 -35 16 -133v-641q0 -139 -12 -261q-10 -119 -61 -206q-68 -104 -193 -119q-16 -2 -47 -2q-51 0 -76 8q-76 13 -84 74zM92 1307q0 123 127 123 q68 0 91 -28q22 -25 22 -81q0 -71 -29 -108q-27 -34 -96 -33q-61 0 -88 29.5t-27 97.5z" />
<glyph unicode="k" horiz-adv-x="831" d="M96 1378q31 72 189 72q29 -47 28 -170v-332q88 63 232 64q102 0 145 -61.5t43 -143.5q0 -139 -85 -230.5t-179 -132.5q61 -47 305 -346l92 -112q12 -11 12 -21q0 -20 -51 -37q-35 -10 -79 -10q-59 0 -119 47q-27 23 -78 92q-2 2 -46 55.5t-67 77.5q-10 12 -57 60 q-57 57 -68 72v-254q0 -53 -28.5 -63.5t-165.5 -10.5l-21 10q4 139 4 395v740q0 74 -4 184zM313 532q193 102 193 248q0 70 -47 70q-68 0 -146 -105v-213z" />
<glyph unicode="l" horiz-adv-x="432" d="M94 1384q16 39 64.5 51.5t138.5 12.5q14 -55 14 -199v-1048v-23q0 -23 15.5 -43t44.5 -14q-4 -57 -4 -88q-39 -55 -127 -58q-43 0 -82 29q-59 41 -60 109v1044q0 108 -4 227z" />
<glyph unicode="m" horiz-adv-x="1411" d="M84 899q20 25 88 51q12 4 27 4q53 0 75 -43q61 43 121 62q61 20 133 20q29 0 41 -2q123 -12 181 -86q59 43 133 66q59 20 129 20q33 0 43 -2h-2q135 -10 187 -99t52 -257v-340q0 -195 4 -266q-43 -33 -202 -33q-18 37 -19 76v553q0 113 -24.5 157.5t-89.5 44.5 q-82 0 -158 -80l6 7v-713q0 -33 -41 -43q-12 -2 -76 -2h-102q4 102 4 387v244q0 113 -25.5 157.5t-91.5 44.5q-84 0 -153 -73v-656q0 -51 -23 -78q-25 -18 -56.5 -22t-138.5 -4q2 102 3 389v362q0 84 -25 154z" />
<glyph unicode="n" horiz-adv-x="946" d="M82 895q23 25 86 51q12 4 29 4q53 0 73 -43q57 41 121 62q68 23 133 22q180 0 242.5 -87t62.5 -277v-310q0 -131 5 -290q-35 -33 -199 -33q-23 43 -23 92v537q0 111 -30.5 155.5t-108.5 44.5q-88 0 -160 -80l6 7v-631q0 -63 -24 -99q-20 -16 -44 -20t-97 -6h-54 q4 217 4 403v344q1 91 -22 154z" />
<glyph unicode="o" horiz-adv-x="927" d="M43 479q0 256 112.5 385t303.5 129q403 0 403 -501q0 -250 -113.5 -385.5t-295.5 -135.5q-410 0 -410 508zM270 487q0 -365 187 -364q80 0 130 86t50 276q0 352 -184 353q-80 0 -131.5 -86.5t-51.5 -264.5z" />
<glyph unicode="p" horiz-adv-x="958" d="M84 897q12 23 86 53l27 4q53 0 75 -43q61 39 123 62q63 23 127 22q164 0 265.5 -109.5t101.5 -336.5q0 -354 -184 -500q-94 -78 -224 -78q-100 0 -159 35v-307q0 -61 -5 -88l-8 -6q-33 -20 -114 -21q-35 0 -82 10q-6 35 -7 207v944q1 89 -22 152zM322 182q51 -55 129 -55 q82 0 145 94t63 314q0 293 -180 292q-76 0 -157 -69v-576z" />
<glyph unicode="q" horiz-adv-x="954" d="M51 440q0 285 172 437q104 92 246 110q49 4 76 4q152 0 307 -63q-25 -70 -25 -156v-1118q0 -41 -18 -55.5t-86 -18.5h-113q4 180 4 340v100q-92 -53 -190 -53q-160 0 -266.5 114.5t-106.5 358.5zM281 449q0 -160 54 -236t144 -76q88 0 135 64v585q0 16 4 37 q-39 12 -108 17q-94 0 -161.5 -99t-67.5 -292z" />
<glyph unicode="r" horiz-adv-x="634" d="M80 895q27 27 88 51q12 4 29 4q55 0 73 -41q47 33 121 60q46 18 90 18q15 0 29 -2q92 -10 102 -57q0 -76 -37 -129q-14 -4 -32 -4q-27 0 -60 4q-14 4 -26 4q-86 0 -140 -53v-646q0 -55 -20 -84q-25 -18 -58.5 -22t-138.5 -4q4 217 4 405l2 342q1 78 -26 154z" />
<glyph unicode="s" horiz-adv-x="729" d="M41 72q0 55 41 110h20q29 0 62 -18v2q76 -33 145 -33q12 0 37 4q45 4 71.5 34t26.5 77q0 70 -77 123l-25 16q-59 41 -139 109l-51 41q-94 94 -95 198q0 121 90.5 189.5t237.5 68.5q31 0 59 -4q86 -6 138.5 -35.5t60.5 -56.5q0 -53 -41 -104l-41 8q-45 8 -67 16 q-47 18 -93 19q-53 0 -84.5 -27t-31.5 -68q0 -51 55 -96l86 -61l63 -47l56 -41q127 -106 127 -230q0 -141 -101.5 -217t-257.5 -76q-100 0 -177 28t-95 71z" />
<glyph unicode="t" horiz-adv-x="669" d="M29 838q0 43 3 53t15 22q27 18 88 37q6 2 16.5 2t16.5 4q0 29 4 90l6 89q29 84 193 94v-33q-4 -172 -4 -229h260q-4 -84 -17.5 -114t-46.5 -36q-29 -4 -51 -4q-41 -2 -145 -2q-4 -180 -5 -264q0 -25 1.5 -69t1.5 -64v-101q6 -92 24.5 -137t63.5 -45h4q19 0 60 13 q46 15 58 26l35 -6q4 -25 4 -47q0 -41 -2 -58q-6 -18 -28 -39q-76 -49 -191 -49q-244 0 -243 351v487q-66 2 -121 29z" />
<glyph unicode="u" horiz-adv-x="952" d="M92 932q31 27 103 61q16 4 28 4q74 0 92 -75q23 -86 23 -197l-21 -369q0 -123 33 -167t103 -44h15q86 0 140 64v639q0 66 25 98q20 16 43.5 20.5t97.5 6.5h53q-4 -217 -4 -404v-344q0 -90 23 -153q-23 -23 -86 -52q-12 -4 -29 -4q-51 0 -74 45q-55 -41 -120 -63 q-68 -23 -134 -23q-176 8 -237.5 91.5t-65.5 263.5l19 422q0 100 -27 180z" />
<glyph unicode="v" horiz-adv-x="823" d="M20 918q20 61 193 61q31 -31 45 -84l13 -46l14 -46q16 -53 43 -154q43 -178 55 -233q14 -74 31 -129q6 31 26 108q6 29 20 83l24 102l22 86q33 121 37 133q20 68 43 155q29 18 63 19q39 0 119 -10q12 -16 12 -31q0 -29 -22 -101v3l-64 -213l-53 -174l-67 -218l-62 -196 q-23 -23 -92 -41q-6 0 -10 -2h4q-6 -2 -21 -2q-33 0 -62.5 15t-37.5 36q-35 127 -176 571h2q-38 93 -99 308z" />
<glyph unicode="w" horiz-adv-x="1263" d="M20 926q29 51 203 51q27 -23 39 -70l60 -250l17 -84l15 -73l41 -193l54 223q68 272 86 359q4 12 4 24v19q6 8 73 21q46 9 74 9q12 0 21 -1q25 -23 38 -84l82 -347q4 -16 13.5 -62t15.5 -69q8 -37 13 -55l10 -35q23 86 82 363q31 127 57 258q2 2 2 14q4 12 10 21 q16 12 45 12q23 0 76 -6t59 -10q8 -4 15 -21q2 -18 -11 -63l-8 -21l2 2q-14 -45 -42 -148l-40 -147q-92 -340 -139 -495q0 -2 -2 -8.5t-4 -8.5l2 2q-12 -55 -45 -65q-12 -2 -127 -8q-47 37 -68 100l-26 96q-4 12 -8 29.5t-7 23.5q-33 137 -75 336q-16 -70 -90 -356l-37 -141 q0 -2 -2 -8.5t-4 -8.5l2 2q-16 -55 -47 -65q-14 -2 -127 -8q-49 39 -66 100l-147 541q-73 268 -89 305z" />
<glyph unicode="x" horiz-adv-x="882" d="M14 2l25 68q27 45 83 131l77 116l114 183l-143 233q-61 96 -111 185l-10 26q63 35 125 35h76q37 -29 76 -98h-2q12 -18 22 -31v-2q-4 8 -4 6h-2q6 -10 20.5 -36.5t22.5 -39.5l66 -112q0 2 2 6l4 4q76 137 80 145l36 60l23 32q14 20 16 25q16 25 30.5 32t53.5 7 q49 0 142 -19l-17 -32q-2 -4 -5 -11.5t-5 -11.5l-172 -264l-80 -125l172 -281l115 -186l10 -27l-14 -12q-29 -10 -119 -14q-51 0 -111 16q-4 6 -15 26l-17 30l-21 33q-14 24 -20 32l-53 93l-64 116l-2 -2q-137 -246 -180 -309l2 2q-12 -25 -33 -31t-78 -6q-60 0 -115 8z" />
<glyph unicode="y" horiz-adv-x="821" d="M6 -328l14 64q23 8 78.5 8t89.5 14l-2 -2q35 18 74 111.5t59 193.5l-2 2q-20 27 -43 97q-178 575 -245 764q12 31 50 43t124 12q16 0 35.5 -29.5t25.5 -58.5q31 -94 115 -391l16 -65l17 -70q8 -37 12 -54q39 152 49 197q33 150 59 250l46 188q33 27 79 27q39 0 60 -2 q6 0 23.5 -1t21.5 -1q14 -29 14 -51.5t-10 -57.5q-115 -461 -266 -885q-147 -377 -322 -376q-147 -1 -172 73z" />
<glyph unicode="z" horiz-adv-x="759" d="M23 76q2 25 20 55q4 8 76 123q233 391 325 559h-190q-8 0 -24.5 -1t-22.5 -1h-43q-125 0 -125 37q12 115 61 129h9q49 -10 172 -10l411 -6q0 -2 1 -11.5t1 -13.5q2 -4 2 -29q0 -31 -24 -80q-111 -217 -373 -669q53 -2 193 -2q162 0 237 20q0 -57 -6 -88q-12 -66 -51 -80 q-57 -10 -230 -10q-285 0 -387 8q-28 33 -32 70z" />
<glyph unicode="{" horiz-adv-x="686" d="M61 631q0 23 7 41q207 10 211 121q2 18 -7 63q-23 74 -47 135q0 2 -2 7.5t-4 7.5q-68 156 -67 227q0 172 180 250q86 35 237 45q6 -25 17 -43q0 -2 2 -6t2 -6q10 -25 10 -29q0 -8 -6 -14q-4 -12 -29 -19h2q-16 -6 -43 -8q-6 -2 -17 -4t-18 -4q-63 -16 -93.5 -57.5 t-35.5 -77.5q-4 -29 7 -70q12 -37 43 -115q4 -8 6 -14q68 -162 67 -232q0 -152 -135 -211q137 -61 137 -204q0 -29 -12 -74q-16 -82 -65 -199q-31 -92 -43 -133q0 -2 -1.5 -5t-1.5 -5q-6 -23 -6 -45q0 -57 36 -97t102 -53q12 -4 43 -6l28 -6q29 -6 35 -18l2 -2v-9 q0 -16 -16 -49q-12 -16 -19 -39q-215 4 -309 74q-109 76 -108 213q0 86 75 262q31 80 47 142l2 4v4q8 43 5 63q-2 29 -10.5 47.5t-39 37t-84.5 22.5q-45 4 -65 35q-19 28 -19 53z" />
<glyph unicode="|" horiz-adv-x="626" d="M213 -455v2024q25 23 58.5 26.5t142.5 3.5v-2025q-25 -20 -60 -24.5t-141 -4.5z" />
<glyph unicode="}" horiz-adv-x="686" d="M61 -229v-4q0 -20 17 -54q12 -16 18 -39q213 2 310 74q109 76 108 213q0 90 -76 262q-27 68 -47 142l-2 4v4q-8 43 -4 63q2 29 10 47.5t39 37t84 22.5q45 4 66 35q18 29 18 53q0 23 -6 41q-207 10 -211 121q-2 18 6 63q20 70 47 135q0 2 2 7.5t4 7.5q68 156 68 227 q0 172 -180 250q-86 35 -238 45q-6 -25 -16 -43q0 -2 -2 -6t-2 -6q-10 -25 -11 -29q0 -2 7 -14q4 -12 28 -19h-2q18 -6 43 -8q6 -2 18.5 -4t16.5 -4q111 -29 129 -135q4 -29 -6 -70q-12 -37 -43 -115q-2 -2 -4 -7t-2 -7q-68 -162 -68 -232q0 -152 135 -211 q-137 -61 -137 -204q0 -29 12 -74q16 -82 66 -199q31 -92 43 -133v-4q2 -4 2 -6q6 -23 6 -45q0 -57 -35.5 -97t-101.5 -53l-14 -2q-12 -2 -21 -4l-37 -6q-29 -6 -35 -18q0 -2 -2 -2z" />
<glyph unicode="~" horiz-adv-x="1024" d="M37 397q49 356 264 357q129 -4 256 -117h-2l11 -10.5t14 -10.5q98 -94 147 -94q76 0 96 158q6 31 27 70q29 0 74 -12.5t65 -26.5q-23 -186 -87 -263t-167 -77q-49 0 -107.5 28.5t-92 54t-101.5 81.5q-82 70 -123 69q-78 0 -108 -203q-25 -25 -70 -24h-2q-55 2 -94 20z " />
<glyph unicode="&#xa1;" horiz-adv-x="415" d="M70 -242q2 109 26 551q10 152 10 168q8 82 162 82l21 -10q6 -166 8 -195q20 -455 27 -667q-6 -57 -230 -58q-24 59 -24 129zM86 860.5q2 63.5 28.5 97t96.5 33.5q61 0 88 -30.5t27 -96.5q0 -123 -127 -123q-68 0 -91.5 28t-21.5 91.5z" />
<glyph unicode="&#xa2;" d="M133 535q0 121 30 215t79 149t99 87t105 50q0 10 2.5 30.5t2.5 31.5q2 20 2 67q2 31 21.5 45.5t66.5 20.5q12 2 41 2q6 0 18 1t18 1l21 -10q-4 -106 -8 -181q127 -25 153 -77q0 -49 -24 -93q-27 -14 -51 -14q-20 0 -37 6q-35 14 -68 17q-25 4 -29 4q-221 0 -221 -336 q0 -174 56.5 -239.5t156.5 -65.5q86 0 201 57q0 -106 -23 -147q0 -12 -20 -27q-68 -41 -145 -47q-6 -113 -7 -137q-2 -31 -20 -46.5t-57 -19.5q-39 -6 -111 -6l10 221q-262 68 -262 441z" />
<glyph unicode="&#xa3;" horiz-adv-x="1007" d="M96 39l2 125q139 76 158 266q2 12 2 37q0 70 -22 170q-16 -2 -61.5 -6t-63.5 -6q-12 111 12 139q25 16 61 20h15q-12 78 -13 154q12 207 113 326q98 121 287 137q121 0 199.5 -36t97.5 -75q0 -61 -33 -108q-35 -10 -90 18q-23 14 -88 25q-59 8 -88 2q-143 -20 -160 -264 q-2 -14 -2 -39q0 -41 12 -115l176 18l168 17q6 -74 -6 -114t-57 -44q-43 -4 -126 -13l-122 -14q20 -98 20 -182q0 -27 -2 -43q-4 -20 -4 -35q-12 -115 -88 -202q133 -27 264 -27q182 0 308 23q6 -43 -2 -95q-4 -41 -50 -69h5q-23 -18 -54 -27q-94 -20 -221 -20 q-242 0 -547 57z" />
<glyph unicode="&#xa5;" d="M8 1323q0 14 21.5 19.5t93.5 5.5h119q31 -74 123 -273l116 -266l248 534q45 16 82 17q31 0 113 -8q6 -18 6 -32.5t-21 -68.5l-2 -2q2 0 1 -3t-3 -5q-45 -102 -162 -309q-100 -174 -133 -252q-6 -12 -16 -49q37 4 112.5 11t104.5 9q6 -72 -6 -111.5t-60 -43.5 q-29 -2 -81 -8.5t-80 -8.5v-190q0 -35 1 -90.5t1 -75.5v-94q-18 -23 -56 -30t-145 -7q-20 49 -20 100v365l-117 -13q-78 -8 -107 -10q-8 109 15 139q20 14 61 19l145 16v2q-41 104 -108 232l-36 70l-44 86l-39 75z" />
<glyph unicode="&#xa7;" horiz-adv-x="989" d="M53 920q0 135 76 233q41 53 94 57q12 0 19 -2q0 14 4 35q14 143 166 213l-2 -2q80 45 213 41q119 0 192 -57q27 -25 -39 -119q-117 41 -186 41q-72 0 -120 -35t-48 -98q-2 -29 8 -53.5t20.5 -37t32.5 -34.5q47 -45 129 -115q76 -63 116 -100t95.5 -100.5t80 -133 t24.5 -147.5q0 -39 -6 -72q-18 -133 -144 -174q-6 -2 -14 -2q27 -57 27 -102q0 -10 -5 -39v2q-12 -150 -165 -215l2 2q-84 -45 -207 -45h-27q-100 4 -170 28q-37 23 -10 156q115 -43 231 -43q74 0 121 35t47 96q0 20 -4 31q-8 43 -55 94q-72 68 -137 123l-130 114 q-48 44 -109.5 115.5t-90.5 148.5t-29 161zM190 963q0 -70 32 -139.5t104.5 -144.5t113.5 -112t133 -112q133 -109 150 -131q8 -10 20 -31q16 39 29 94q18 100 -33 213t-127 178l-96 76q-158 119 -209 182q-43 51 -61 125q-56 -92 -56 -198z" />
<glyph unicode="&#xa8;" horiz-adv-x="745" d="M96 1264q0 115 121 114q63 0 86 -25.5t21 -84.5q-4 -123 -119 -123q-109 0 -109 119zM414 1264q0 115 121 114q63 0 85.5 -25.5t20.5 -84.5q-4 -123 -119 -123q-59 0 -83.5 29t-24.5 90z" />
<glyph unicode="&#xa9;" horiz-adv-x="1183" d="M61 874q0 256 147.5 402.5t391.5 146.5q242 0 381 -142t139 -404q0 -254 -145.5 -402.5t-382.5 -148.5q-246 0 -388.5 142t-142.5 406zM221 874q0 -201 99.5 -313t271.5 -112q164 0 266.5 115.5t102.5 314.5q0 197 -97.5 311.5t-263.5 114.5q-170 0 -274.5 -113 t-104.5 -311v-7zM342 864q0 162 82 239t209 77q55 0 100 -15.5t55 -31.5l3 -5q0 -31 -17 -63q-25 -12 -33 -12q-18 0 -32 8l2 -2q-23 8 -41 10q-14 2 -52 2q-127 -12 -126 -203q0 -27 6 -45q8 -78 44 -108.5t101 -30.5q35 0 121 29q16 -33 22 -58q-4 -27 -26 -47 q-59 -35 -139 -35q-139 0 -209 68.5t-70 222.5z" />
<glyph unicode="&#xaa;" horiz-adv-x="600" d="M90 854q0 106 73 155.5t159 57.5h36h23v57q0 43 -7 61.5t-34 18.5q-41 0 -125 -33q-25 -10 -57 -10q-23 23 -27 58h2q-4 6 -4 16l2 6v10q70 63 209 68h47q78 -6 109.5 -52t31.5 -134v-58q0 -23 -1 -71t-1 -72v-111v-12q0 -12 9.5 -22.5t25.5 -6.5q-4 -37 -4 -63 q-20 -39 -84 -41q-47 0 -78 35l-33 -21q-35 -14 -96 -14q-74 0 -125 46t-51 132zM242 864q0 -74 47 -80h8q49 0 78 33q0 2 1 7t1 7v3q4 14 4 59v80h-6q-16 0 -37 -4q-96 -15 -96 -105z" />
<glyph unicode="&#xab;" horiz-adv-x="925" d="M53 502l4 4q47 74 121 176l187 270q41 -4 78.5 -39.5t37.5 -52.5q0 -53 -211 -360l-6 -8l72 -104q43 -62 92 -149t49 -118q0 -20 -39 -57t-82 -39q-45 74 -286 417q-17 33 -17 60zM418 500l4 4l170 233l149 205q39 -6 76 -40t37 -54q0 -59 -221 -359l73 -99 q44 -60 94 -145t50 -112q0 -18 -38 -55t-81 -43q-29 51 -203 284l-86 117q-24 33 -24 64z" />
<glyph unicode="&#xac;" horiz-adv-x="1019" d="M59 633q0 111 52 160h751l82 -15v-446q0 -43 -6 -68q-12 -31 -133 -39q-4 0 -23.5 -1t-23.5 -1v410h-699z" />
<glyph unicode="&#xad;" horiz-adv-x="598" d="M55 442q14 154 70 156q131 12 352 41q25 -2 64 -23q-10 -143 -90 -153h2q-207 -33 -332 -33q-33 0 -66 12z" />
<glyph unicode="&#xae;" horiz-adv-x="811" d="M51 1069q0 172 96.5 268.5t264.5 96.5q170 0 259 -91.5t89 -271.5q0 -170 -95.5 -269.5t-261.5 -99.5q-170 0 -261 92.5t-91 274.5zM190 1069q0 -260 211 -260q94 0 152 61q-14 -4 -45 -4q-20 0 -23 2q-12 0 -39 11q-12 84 -49 133h-12q-2 0 -2 2v-129q-20 -16 -109 -17 l2 394q12 12 37 12h2q2 2 7 2q8 2 26 2q43 0 60 -2q141 -6 141 -123q0 -63 -57 -102q55 -70 75 -158v-8q53 70 54 188q0 123 -55.5 189.5t-156 66.5t-160 -65.5t-59.5 -194.5zM383 1094h4q10 0 29 6v-2q20 10 20 57q0 49 -39 49q-4 0 -8 -1t-6 -1v-108z" />
<glyph unicode="&#xaf;" horiz-adv-x="901" d="M217 1231q8 68 18.5 92.5t32.5 22.5q139 -2 348 2q18 -6 46 -19q-10 -115 -72 -115q-205 -8 -328 5q-18 2 -45 12z" />
<glyph unicode="&#xb0;" horiz-adv-x="727" d="M174 1313q0 88 63.5 150.5t160 62.5t157.5 -63.5t61 -147.5q0 -90 -64.5 -151.5t-158.5 -61.5q-90 0 -154.5 59.5t-64.5 151.5zM315 1315q0 -43 23.5 -70.5t58.5 -27.5t57.5 28.5t22.5 67.5t-22.5 69.5t-59.5 30.5q-35 0 -57.5 -29.5t-22.5 -68.5z" />
<glyph unicode="&#xb1;" horiz-adv-x="598" d="M45 616q0 84 14.5 120t53.5 36h100q0 61 -4 135q25 27 145 31q39 -16 39 -82v-84h168q0 -86 -13 -121t-56 -35h-99v-100q2 -27 -10 -44t-24.5 -26.5t-45 -13.5t-46.5 -4h-54v188h-168zM55 178q14 154 70 156q186 16 352 39q16 -2 64 -21q-10 -139 -88 -153 q-207 -33 -332 -33q-31 0 -66 12z" />
<glyph unicode="&#xb2;" d="M57 59q8 57 45 111l197 244q133 162 200.5 273.5t67.5 203.5q0 168 -155 168q-129 0 -246 -78h2l-35 -14q-29 0 -43 43t-14 73q37 66 144.5 108t238.5 42q338 0 338 -318q0 -20 -4 -53q-16 -133 -136 -299q-16 -23 -137 -172q-90 -104 -180 -223q84 -2 262 -2q23 0 164 6 q29 2 88 2q-14 -160 -78 -166q-123 -10 -219 -10q-354 0 -483 8q-15 35 -17 53z" />
<glyph unicode="&#xb3;" d="M76 8q0 35 16 90q106 -63 223 -63q137 0 216 84t75 211q0 2 -1 8t-1 10q0 16 -2 23q-20 162 -264 161q-39 0 -92 -6q0 23 -2 27q-4 12 -4 22q10 55 28 80q268 104 269 269q0 137 -138 137q-127 0 -225 -72q-14 -10 -31 -10q-18 0 -32 20q-18 35 -19 86v11q25 55 123 96 t229 41q174 0 249 -81t75 -185q0 -90 -47 -168q-53 -82 -152 -150q127 -29 196 -109.5t69 -205.5q0 -219 -143.5 -342t-364.5 -123q-156 0 -215 51h2q-37 33 -37 88z" />
<glyph unicode="&#xb4;" horiz-adv-x="686" d="M199 1198q0 6 4 19q193 268 237 268q39 0 81 -37t42 -70q-4 -6 -28 -30l-242 -238q-35 8 -64.5 34.5t-29.5 53.5z" />
<glyph unicode="&#xb5;" horiz-adv-x="952" d="M78 -332q25 74 24 154v536l-2 306q0 123 -4 270q31 39 203 39q18 -63 18 -207l-2 -410q0 -123 34 -167t104 -44q96 -6 155 64v639q0 66 25 98q20 16 42.5 20.5t98.5 6.5h51q-4 -217 -4 -404v-344q0 -84 25 -153q-23 -23 -86 -52q-12 -4 -29 -4q-51 0 -74 45 q-55 -39 -122 -63q-63 -23 -132 -23q-76 4 -116 15v-314q-23 -68 -82 -67q-16 0 -29 4q-80 37 -98 55z" />
<glyph unicode="&#xb6;" horiz-adv-x="1044" d="M68 850q0 221 138 343t341 122h340q37 0 37 -25q0 -16 -6 -22l-52 -43q-14 -10 -26 -13v-749q0 -18 -1 -53t-1 -52v-90q-8 -264 -142 -393h-2q-84 -63 -192 -63q-47 0 -133 16q-39 8 -54 41q-16 59 -18 68q78 -16 111 -17q47 0 112 21q168 70 168 389v145q-12 -4 -18 -4 q-137 -29 -221 -35q-168 0 -274.5 109.5t-106.5 304.5z" />
<glyph unicode="&#xb7;" horiz-adv-x="413" d="M74 524q0 127 139 127q76 0 101.5 -28.5t23.5 -94t-32 -100.5t-107 -35q-70 0 -97.5 31.5t-27.5 99.5z" />
<glyph unicode="&#xb8;" horiz-adv-x="563" d="M156 -371q0 20 26 27q90 29 125 53.5t35 65.5q0 39 -53 58.5t-121 19.5q10 68 25 88q80 4 129 -9q68 -16 110.5 -58t42.5 -99q0 -166 -272 -209q-20 2 -33.5 24.5t-13.5 38.5z" />
<glyph unicode="&#xb9;" horiz-adv-x="804" d="M121 1040q14 27 57 70q199 74 389 125q41 -12 64 -27q-6 -317 -10 -1040l55 -18q78 -25 78 -41q0 -57 -5.5 -76t-25.5 -27q-35 -6 -57 -6q-4 0 -11.5 -1t-9.5 -1q-238 -4 -393 -4v51q0 8 -1 26.5t-1 28.5q0 14 17.5 25.5t31.5 15.5t53 17q4 2 19.5 6t25.5 8q6 326 13 854 q-188 -49 -260 -65q-27 48 -29 79z" />
<glyph unicode="&#xba;" horiz-adv-x="657" d="M90 995q0 162 71.5 244t194.5 82q260 0 260 -317q0 -158 -72.5 -244t-191.5 -86q-262 -1 -262 321zM248 1001q0 -223 108 -223q104 0 105 221q0 219 -109 220q-104 -1 -104 -218z" />
<glyph unicode="&#xbb;" horiz-adv-x="923" d="M68 135q0 57 225 354l-14 21l-17 22l-76 112q-41 60 -74.5 121.5t-33.5 84.5q0 33 40 60.5t72 39.5q70 -119 302 -426q14 -25 14 -47l-4 -6q-12 -18 -158 -215l-176 -229q-8 6 -20.5 12t-25.5 16.5l-25.5 21.5t-20.5 26.5t-8 31.5zM438 121q0 59 221 368q0 2 -5 5.5 t-7 7.5h2q-201 289 -200 360q0 33 46 60.5t72 29.5q70 -119 285 -413q18 -35 18 -60l-4 -6l-157 -227l-158 -228q-113 50 -113 103z" />
<glyph unicode="&#xbc;" horiz-adv-x="2785" d="M1880 430q57 141 213.5 403.5t246.5 342.5q47 47 140 63q31 0 77 -10h15l8 -2q0 -31 -1 -101.5t-1 -103.5v-195q0 -254 -2 -378q74 6 135 6q2 -6 5 -13.5t3 -9.5q8 -16 8 -33q-31 -78 -98 -98q-16 -4 -47 -4h-6v-227q0 -68 -68 -80q-43 -6 -151 -6v241q0 12 1 34t1 36 q-264 0 -416 16q-51 49 -63 119zM2101 453q111 -6 258 -7q4 63 8 232v43q0 14 1 43t1 41q0 55 2 113q-157 -207 -270 -465zM942 -80q-4 4 -10 8l-6 4q-61 35 -66 60q125 231 516 887l258 436q27 41 45 41q16 0 46 -19q53 -31 59 -67l-512 -873l-252 -428q-33 -53 -57 -53 q-17 0 -21 4zM121 1040q14 27 57 70q199 74 389 125q41 -12 64 -27q-6 -317 -10 -1040l55 -18q78 -25 78 -41q0 -57 -5.5 -76t-25.5 -27q-35 -6 -57 -6q-4 0 -11.5 -1t-9.5 -1q-238 -4 -393 -4v51q0 8 -1 26.5t-1 28.5q0 14 17.5 25.5t31.5 15.5t53 17q4 2 19.5 6t25.5 8 q6 326 13 854q-188 -49 -260 -65q-27 48 -29 79z" />
<glyph unicode="&#xbd;" horiz-adv-x="2785" d="M1912 59q8 57 45 111l197 244q133 162 200.5 273.5t67.5 203.5q0 168 -155 168q-129 0 -246 -78h2l-35 -14q-29 0 -43 43t-14 73q37 66 144.5 108t238.5 42q338 0 338 -318q0 -20 -4 -53q-16 -133 -136 -299q-16 -23 -137 -172q-90 -104 -180 -223q84 -2 262 -2 q23 0 164 6q29 2 88 2q-14 -160 -78 -166q-123 -10 -219 -10q-354 0 -483 8q-15 35 -17 53zM942 -80q-4 4 -10 8l-6 4q-61 35 -66 60q125 231 516 887l258 436q27 41 45 41q16 0 46 -19q53 -31 59 -67l-512 -873l-252 -428q-33 -53 -57 -53q-17 0 -21 4zM121 1040 q14 27 57 70q199 74 389 125q41 -12 64 -27q-6 -317 -10 -1040l55 -18q78 -25 78 -41q0 -57 -5.5 -76t-25.5 -27q-35 -6 -57 -6q-4 0 -11.5 -1t-9.5 -1q-238 -4 -393 -4v51q0 8 -1 26.5t-1 28.5q0 14 17.5 25.5t31.5 15.5t53 17q4 2 19.5 6t25.5 8q6 326 13 854 q-188 -49 -260 -65q-27 48 -29 79z" />
<glyph unicode="&#xbe;" horiz-adv-x="2910" d="M2005 430q57 141 213.5 403.5t246.5 342.5q47 47 140 63q31 0 77 -10h15l8 -2q0 -31 -1 -101.5t-1 -103.5v-195q0 -254 -2 -378q74 6 135 6q2 -6 5 -13.5t3 -9.5q8 -16 8 -33q-31 -78 -98 -98q-16 -4 -47 -4h-6v-227q0 -68 -68 -80q-43 -6 -151 -6v241q0 12 1 34t1 36 q-264 0 -416 16q-51 49 -63 119zM2226 453q111 -6 258 -7q4 63 8 232v43q0 14 1 43t1 41q0 55 2 113q-157 -207 -270 -465zM1067 -80q-4 4 -10 8l-6 4q-61 35 -66 60q125 231 516 887l258 436q27 41 45 41q16 0 46 -19q53 -31 59 -67l-512 -873l-252 -428q-33 -53 -57 -53 q-17 0 -21 4zM76 8q0 35 16 90q106 -63 223 -63q137 0 216 84t75 211q0 2 -1 8t-1 10q0 16 -2 23q-20 162 -264 161q-39 0 -92 -6q0 23 -2 27q-4 12 -4 22q10 55 28 80q268 104 269 269q0 137 -138 137q-127 0 -225 -72q-14 -10 -31 -10q-18 0 -32 20q-18 35 -19 86v11 q25 55 123 96t229 41q174 0 249 -81t75 -185q0 -90 -47 -168q-53 -82 -152 -150q127 -29 196 -109.5t69 -205.5q0 -219 -143.5 -342t-364.5 -123q-156 0 -215 51h2q-37 33 -37 88z" />
<glyph unicode="&#xbf;" horiz-adv-x="671" d="M33 -90q0 63 22.5 124.5t48 100.5t72.5 98q96 125 96 209q0 25 -10 70q-4 29 -4 41q20 33 92 33q37 0 69 -21.5t44 -62.5q10 -45 10 -84q0 -59 -27 -121q-18 -39 -81 -133q-4 -4 -8.5 -12.5t-8.5 -12.5q-35 -47 -48 -67.5t-29.5 -61.5t-16.5 -78q0 -61 32.5 -93t86.5 -32 q72 0 155 54q33 -4 54.5 -34t21.5 -85q-31 -51 -113.5 -80t-168.5 -29q-289 1 -289 277zM229 868.5q2 63.5 29 97t96 33.5q61 0 88 -30.5t27 -96.5q0 -123 -127 -122q-70 0 -92.5 27.5t-20.5 91z" />
<glyph unicode="&#xc0;" horiz-adv-x="1110" d="M8 10q8 55 19 80l188 543q160 436 234 670q14 51 38 51q2 0 11 4q16 4 28 4q20 2 64 2q33 -6 55 -31l148 -452l153 -455h-2q76 -207 100 -291q20 -70 31 -100l2 -4q0 -8 -12 -21q-51 -18 -129 -18q-47 0 -92 37l-4 4q-16 47 -45 141l-60 195h-389l-117 -342 q-12 -35 -79 -35q-60 0 -142 18zM264 1683q0 20 10 41q18 41 52 54q12 35 47 34q23 0 121 -68.5t153 -121.5q27 -27 33 -45q0 -14 -25.5 -47t-42.5 -39h-14q-23 8 -143 78q-8 4 -70 39l-88 49q-23 12 -33 26zM399 532h285q-8 25 -29 97l-22 83q-14 52 -21 70 q-53 162 -67 222l-107 -345l2 3z" />
<glyph unicode="&#xc1;" horiz-adv-x="1110" d="M8 10q8 55 19 80l188 543q160 436 234 670q14 51 38 51q2 0 11 4q16 4 28 4q20 2 64 2q33 -6 55 -31l148 -452l153 -455h-2q76 -207 100 -291q20 -70 31 -100l2 -4q0 -8 -12 -21q-51 -18 -129 -18q-47 0 -92 37l-4 4q-16 47 -45 141l-60 195h-389l-117 -342 q-12 -35 -79 -35q-60 0 -142 18zM399 532h285q-8 25 -29 97l-22 83q-14 52 -21 70q-53 162 -67 222l-107 -345l2 3zM432 1559q27 33 37 40q66 59 158 119t116 60q27 -4 49.5 -41t30.5 -74q0 -18 -28 -33q-49 -23 -163 -81t-149 -72q-18 6 -34.5 38t-16.5 44z" />
<glyph unicode="&#xc2;" horiz-adv-x="1110" d="M8 10q8 55 19 80l188 543q160 436 234 670q14 51 38 51q2 0 11 4q16 4 28 4q20 2 64 2q33 -6 55 -31l148 -452l153 -455h-2q76 -207 100 -291q20 -70 31 -100l2 -4q0 -8 -12 -21q-51 -18 -129 -18q-47 0 -92 37l-4 4q-16 47 -45 141l-60 195h-389l-117 -342 q-12 -35 -79 -35q-60 0 -142 18zM287 1528q59 70 205 219q23 27 75 27l13 -2q94 -72 204 -187l41 -41q-12 -31 -42.5 -60.5t-55.5 -29.5q-37 0 -59 21h2q-23 16 -97 90l-24 24q-59 -68 -127 -119h2q-4 -4 -25 -12l-22 -2q-67 21 -90 72zM399 532h285q-8 25 -29 97l-22 83 q-14 52 -21 70q-53 162 -67 222l-107 -345l2 3z" />
<glyph unicode="&#xc3;" horiz-adv-x="1110" d="M8 10q8 55 19 80l188 543q160 436 234 670q14 51 38 51q2 0 11 4q16 4 28 4q20 2 64 2q33 -6 55 -31l148 -452l153 -455h-2q76 -207 100 -291q20 -70 31 -100l2 -4q0 -8 -12 -21q-51 -18 -129 -18q-47 0 -92 37l-4 4q-16 47 -45 141l-60 195h-389l-117 -342 q-12 -35 -79 -35q-60 0 -142 18zM272 1554q66 193 201 193q37 0 69.5 -25.5t55.5 -52.5q33 -33 53 -33q55 0 78 80q8 20 25 21q33 0 69 -62q-10 -70 -61 -127t-125 -57q-43 0 -75 27.5t-54 56.5q-29 29 -53 29q-47 -10 -76 -78q-10 -23 -23 -23q-33 0 -84 51zM399 532h285 q-8 25 -29 97l-22 83q-14 52 -21 70q-53 162 -67 222l-107 -345l2 3z" />
<glyph unicode="&#xc4;" horiz-adv-x="1110" d="M8 10q8 55 19 80l188 543q160 436 234 670q14 51 38 51q2 0 11 4q16 4 28 4q20 2 64 2q33 -6 55 -31l148 -452l153 -455h-2q76 -207 100 -291q20 -70 31 -100l2 -4q0 -8 -12 -21q-51 -18 -129 -18q-47 0 -92 37l-4 4q-16 47 -45 141l-60 195h-389l-117 -342 q-12 -35 -79 -35q-60 0 -142 18zM287 1622q0 106 102 107q53 0 71.5 -24t16.5 -79q-4 -115 -100 -115q-49 0 -69.5 27t-20.5 84zM399 532h285q-8 25 -29 97l-22 83q-14 52 -21 70q-53 162 -67 222l-107 -345l2 3zM629 1622q0 106 102 107q53 0 71.5 -24t16.5 -79 q-4 -115 -100 -115q-49 0 -69.5 27t-20.5 84z" />
<glyph unicode="&#xc5;" horiz-adv-x="1110" d="M8 10q8 55 19 80l188 543q160 436 234 670q14 51 38 51q2 0 11 4q16 4 28 4q20 2 64 2q33 -6 55 -31l148 -452l153 -455h-2q76 -207 100 -291q20 -70 31 -100l2 -4q0 -8 -12 -21q-51 -18 -129 -18q-47 0 -92 37l-4 4q-16 47 -45 141l-60 195h-389l-117 -342 q-12 -35 -79 -35q-60 0 -142 18zM328 1655q0 90 62.5 151.5t158.5 61.5q94 0 154.5 -62.5t60.5 -146.5q0 -90 -63.5 -148.5t-159.5 -58.5q-88 0 -150.5 57.5t-62.5 145.5zM399 532h285q-8 25 -29 97l-22 83q-14 52 -21 70q-53 162 -67 222l-107 -345l2 3zM467 1657 q0 -41 23.5 -68.5t56.5 -27.5q37 0 58.5 28.5t21.5 67.5q0 41 -21.5 70.5t-60.5 29.5q-35 0 -56.5 -29.5t-21.5 -70.5z" />
<glyph unicode="&#xc6;" horiz-adv-x="1460" d="M18 23l246 538l309 678l9 18q2 6 13 31t15 37q61 29 140 33h608q-2 -131 -53 -154q-72 -10 -175 -10h-198q0 -23 1 -63.5t2 -74.5t3 -63q8 -129 10 -202h381q-8 -96 -27.5 -129t-66.5 -33h-281l23 -467q43 -4 162 -4q209 0 276 2q-4 -84 -22.5 -118t-59.5 -44 q-106 -4 -231 -4q-127 0 -324 12q0 6 -2 23.5t-4 23.5q-2 8 -5 18.5t-3 16.5l-23 377h-305l-192 -426q-8 -16 -6 -14q-20 -39 -76 -39q-39 0 -74 10zM502 625h231l-16 483l-72 -166q-88 -186 -143 -317z" />
<glyph unicode="&#xc7;" horiz-adv-x="972" d="M55 645q0 385 181 584q147 158 393 157q121 0 198.5 -35.5t98.5 -74.5q0 -66 -35 -111h-23q-16 -2 -49 15q-2 0 -7 2t-7 4v-2q-49 20 -90 28q-33 4 -62 5q-27 0 -41 -3q-145 -14 -236 -150t-91 -409q0 -504 352 -503q66 0 137.5 21.5t112.5 45.5q25 -41 28 -84 q-6 -59 -53 -98q-76 -68 -254 -68q-270 0 -411.5 154.5t-141.5 521.5zM434 -371q0 20 27 27q90 29 125 53.5t35 65.5q0 39 -53.5 58.5t-121.5 19.5q10 68 25 88q80 4 129 -9q68 -16 111 -58t43 -99q0 -166 -273 -209q-20 2 -33.5 24.5t-13.5 38.5z" />
<glyph unicode="&#xc8;" horiz-adv-x="808" d="M102 1323l58 20q39 12 65 15h510q-4 -82 -15 -113t-40 -41q-59 -10 -195 -10h-159v-393h376q-12 -104 -31.5 -134t-68.5 -30h-276v-475q39 -4 149 -4q205 0 289 2q-8 -84 -26.5 -118t-59.5 -44q-102 -4 -242 -4q-195 0 -313 12q-10 47 -17 88v971q0 176 -4 258zM164 1679 q0 18 10 39q14 39 49 54q14 35 49 34q23 0 121.5 -68.5t153.5 -121.5h-2q25 -23 35 -39q0 -14 -26 -50t-44 -42h-12q-31 10 -150 82q-129 76 -166 92q-12 8 -18 20z" />
<glyph unicode="&#xc9;" horiz-adv-x="808" d="M102 1323l58 20q39 12 65 15h510q-4 -82 -15 -113t-40 -41q-59 -10 -195 -10h-159v-393h376q-12 -104 -31.5 -134t-68.5 -30h-276v-475q39 -4 149 -4q205 0 289 2q-8 -84 -26.5 -118t-59.5 -44q-102 -4 -242 -4q-195 0 -313 12q-10 47 -17 88v971q0 176 -4 258zM330 1559 q27 33 37 40q66 59 157.5 119t116.5 60q27 -4 49.5 -41t30.5 -74q0 -18 -29 -33q-49 -23 -162.5 -81t-148.5 -72q-18 6 -34.5 38t-16.5 44z" />
<glyph unicode="&#xca;" horiz-adv-x="808" d="M102 1323l58 20q39 12 65 15h510q-4 -82 -15 -113t-40 -41q-59 -10 -195 -10h-159v-393h376q-12 -104 -31.5 -134t-68.5 -30h-276v-475q39 -4 149 -4q205 0 289 2q-8 -84 -26.5 -118t-59.5 -44q-102 -4 -242 -4q-195 0 -313 12q-10 47 -17 88v971q0 176 -4 258zM156 1528 q59 70 204 219q23 27 76 27l13 -2q84 -61 204 -187l41 -41q-12 -31 -41.5 -60.5t-56.5 -29.5q-37 0 -59 21h2q-27 20 -97 90l-24 24q-59 -68 -127 -119h2q-4 -4 -25 -12l-22 -2q-29 8 -55.5 30t-34.5 42z" />
<glyph unicode="&#xcb;" horiz-adv-x="808" d="M102 1323l58 20q39 12 65 15h510q-4 -82 -15 -113t-40 -41q-59 -10 -195 -10h-159v-393h376q-12 -104 -31.5 -134t-68.5 -30h-276v-475q39 -4 149 -4q205 0 289 2q-8 -84 -26.5 -118t-59.5 -44q-102 -4 -242 -4q-195 0 -313 12q-10 47 -17 88v971q0 176 -4 258zM162 1622 q0 106 102 107q53 0 71.5 -24t16.5 -79q-4 -115 -100 -115q-49 0 -69.5 27t-20.5 84zM504 1622q0 106 102 107q53 0 71.5 -24t16.5 -79q-4 -115 -100 -115q-49 0 -69.5 27t-20.5 84z" />
<glyph unicode="&#xcc;" horiz-adv-x="444" d="M-47 1679q0 18 10 39q29 47 49 54q14 35 49 34q20 0 119 -68.5t156 -121.5h-2q25 -23 35 -45q0 -14 -27 -47t-43 -39h-14q-12 6 -152 84q-74 45 -158 86q-8 6 -22 24zM96 1303q14 37 56.5 48t130.5 11q25 0 32 -32t7 -111v-254q0 -47 -1.5 -141.5t-1.5 -139.5 q0 -47 1.5 -136t1.5 -130v-201q0 -45 1 -98t1 -62v-28q-27 -35 -185 -35q-39 0 -39 49v244q0 57 1 189t1 204q0 41 -1 122t-1 120v188q0 156 -4 193z" />
<glyph unicode="&#xcd;" horiz-adv-x="444" d="M84 1559q27 33 37 40q66 59 158 119t116 60q27 -4 49.5 -41t30.5 -74q0 -18 -29 -33q-49 -23 -162.5 -81t-148.5 -72q-18 6 -34.5 38t-16.5 44zM98 1303q14 37 56.5 48t130.5 11q25 0 32 -32t7 -111v-254q0 -47 -1 -141.5t-1 -139.5q0 -47 1 -136t1 -130v-201 q0 -45 1 -98t1 -62v-28q-27 -35 -185 -35q-39 0 -39 49v244q0 57 1 189t1 204q0 41 -1 122t-1 120v188q0 156 -4 193z" />
<glyph unicode="&#xce;" horiz-adv-x="444" d="M-49 1528q59 70 205 219q23 27 75 27l13 -2q84 -61 205 -187l40 -41q-12 -31 -41.5 -60.5t-56.5 -29.5q-37 0 -59 21h2q-27 20 -96 90l-25 24q-59 -68 -127 -119h2q-4 -4 -25 -12l-22 -2q-29 8 -55.5 30t-34.5 42zM98 1303q14 37 55.5 48t131.5 11q23 0 30 -32t7 -111 v-254q0 -47 -1.5 -141.5t-1.5 -139.5q0 -47 1.5 -136t1.5 -130v-201q0 -45 1 -98t1 -62v-28q-27 -35 -183 -35q-39 0 -39 49v244q0 57 1 189t1 204q0 41 -1 122t-1 120v188q0 156 -4 193z" />
<glyph unicode="&#xcf;" horiz-adv-x="444" d="M-74 1595q0 49 33 82t88 33q57 0 86 -31.5t29 -79.5q0 -53 -32 -83.5t-87 -30.5q-117 -1 -117 110zM98 1303q14 37 55.5 48t131.5 11q23 0 30 -32t7 -111v-254q0 -47 -1.5 -141.5t-1.5 -139.5q0 -47 1.5 -136t1.5 -130v-201q0 -45 1 -98t1 -62v-28q-27 -35 -183 -35 q-39 0 -39 49v244q0 57 1 189t1 204q0 41 -1 122t-1 120v188q0 156 -4 193zM264 1595q0 49 32 82t89 33t86 -31.5t29 -79.5q0 -51 -33 -82.5t-86 -31.5q-117 -1 -117 110z" />
<glyph unicode="&#xd0;" horiz-adv-x="1099" d="M-12 647q2 86 16 122t51 36h54v393q0 102 30 145q166 18 297 19q168 0 286 -46t181.5 -134t91 -198t27.5 -255q0 -424 -188 -604q-145 -135 -392 -135q-154 0 -333 22v635h-121zM326 160q55 -6 123 -6q338 0 337 575q0 223 -63.5 330.5t-196.5 130.5q-55 12 -116.5 12 t-83.5 -2v-395h252q-2 -88 -14.5 -123t-55.5 -35h-182v-487z" />
<glyph unicode="&#xd1;" horiz-adv-x="1161" d="M84 1317l4 20q41 25 156 25q35 0 80 -27q29 -59 184 -325l57 -103q6 -12 53 -90l68 -125l137 -280q-6 137 -6 313v494q0 70 21 112q35 23 62.5 27t129.5 4q-4 -242 -4 -430v-903q-55 -41 -108 -41q-61 0 -99 14q-49 94 -182 322v-2l-109 190l-82 152l-92 194q-4 8 -18 40 l-21 46q0 2 -2 4l-4 4q4 -90 10 -336v-477q0 -66 -18 -108q-25 -25 -58.5 -31t-138.5 -6q4 233 5 426v860q-25 29 -25 37zM301 1559q66 193 201 192q37 0 69.5 -25.5t55.5 -52.5q33 -33 53 -33q55 0 78 80q8 20 24 21q33 0 70 -62q-10 -70 -61.5 -127t-124.5 -57 q-43 0 -75 27.5t-54 56.5q-29 29 -54 29q-47 -10 -75 -78q-10 -23 -23 -23q-33 1 -84 52z" />
<glyph unicode="&#xd2;" horiz-adv-x="1171" d="M66 674q0 -705 514 -705q262 0 394 186.5t132 534.5q0 336 -128 516t-386 180q-256 0 -391 -181t-135 -531zM264 664q0 287 85 429t235 142h2q147 0 236 -137t89 -414q0 -285 -84 -424t-237 -139q-147 0 -236.5 138.5t-89.5 404.5zM350 1700q0 20 8 37q6 16 21.5 31.5 t28.5 15.5q12 37 32.5 37t113.5 -69t151 -124q16 -18 26 -33q0 -14 -20.5 -45.5t-34.5 -36.5q-29 12 -152 82l-151 86q-17 11 -23 19z" />
<glyph unicode="&#xd3;" horiz-adv-x="1171" d="M66 674q0 -705 514 -705q262 0 394 186.5t132 534.5q0 336 -128 516t-386 180q-256 0 -391 -181t-135 -531zM264 664q0 287 85 429t235 142h2q147 0 236 -137t89 -414q0 -285 -84 -424t-237 -139q-147 0 -236.5 138.5t-89.5 404.5zM457 1554q27 33 37 41q66 59 157.5 119 t116.5 60q27 -4 49.5 -41t30.5 -74q0 -18 -29 -33q-49 -23 -162.5 -81t-148.5 -72q-18 6 -34.5 37.5t-16.5 43.5z" />
<glyph unicode="&#xd4;" horiz-adv-x="1171" d="M66 674q0 -705 514 -705q262 0 394 186.5t132 534.5q0 336 -128 516t-386 180q-256 0 -391 -181t-135 -531zM264 664q0 287 85 429t235 142h2q147 0 236 -137t89 -414q0 -285 -84 -424t-237 -139q-147 0 -236.5 138.5t-89.5 404.5zM342 1544q78 90 205 217q14 23 59 23 q37 -27 242 -223q-10 -29 -35 -54.5t-45 -25.5q-23 0 -45 18q-25 20 -79 75l-58 58q-70 -84 -140 -137q-6 -8 -16 -10l-10 -2q-62 16 -78 61z" />
<glyph unicode="&#xd5;" horiz-adv-x="1191" d="M53 674q0 -705 527 -705q268 0 403 186.5t135 534.5q0 336 -131 516t-395 180q-262 0 -400.5 -181t-138.5 -531zM289 664q0 279 78.5 417t216 138t220.5 -133.5t83 -401.5q0 -545 -297 -545q-137 0 -219 133.5t-82 391.5zM311 1554q66 193 201 193q37 0 69.5 -25.5 t55.5 -52.5q33 -33 53 -33q55 0 78 80q8 20 25 21q33 0 69 -62q-10 -70 -61 -127t-125 -57q-43 0 -75 27.5t-54 56.5q-29 29 -53 29q-47 -10 -76 -78q-12 -23 -23 -23q-33 0 -84 51z" />
<glyph unicode="&#xd6;" horiz-adv-x="1191" d="M55 674q0 -705 527 -705q268 0 403 186.5t135 534.5q0 336 -131 516t-395 180q-262 0 -400.5 -181t-138.5 -531zM291 664q0 279 79 417t216 138t220 -133.5t83 -401.5q0 -545 -297 -545q-137 0 -219 133.5t-82 391.5zM330 1622q0 106 102 107q53 0 71.5 -24t16.5 -79 q-4 -115 -100 -115q-49 0 -69.5 27t-20.5 84zM672 1622q0 106 102 107q53 0 71.5 -24t16.5 -79q-4 -115 -100 -115q-49 0 -69.5 27t-20.5 84z" />
<glyph unicode="&#xd7;" horiz-adv-x="1021" d="M143 799q8 37 31 67q41 47 98 47l234 -249q18 18 49 52t39 44l104 108l7 6q39 39 61 39q25 0 51 -20h-2q39 -29 68 -76l-135 -143l-123 -131l104 -111q57 -57 113 -119v2q18 -18 35 -51q-14 -31 -37 -51q-43 -47 -101 -47l-235 252l-232 -252q-57 0 -98 49q-23 29 -27 68 l242 258l-117 125q-41 45 -129 133z" />
<glyph unicode="&#xd8;" horiz-adv-x="1234" d="M74 672q0 406 190 585q133 129 348 129q182 0 293 -81q20 35 49 73q16 31 41 39q35 0 71 -26.5t38 -49.5q-16 -45 -90 -180q125 -178 125 -471q0 -721 -537 -721q-180 0 -299 86q-12 -23 -36.5 -58.5t-33.5 -49.5l-4 -2q-12 -10 -36 -11q-18 0 -48 15q-39 35 -47 61 q29 59 101 180q-125 173 -125 482zM305 657q0 -174 43 -282l432 776q-68 68 -176 68q-135 0 -217 -140.5t-82 -421.5zM430 211q74 -72 172 -72q147 0 228 126t81 423q0 178 -47 295l-151 -276q-179 -332 -283 -496z" />
<glyph unicode="&#xd9;" horiz-adv-x="1130" d="M113 1333q20 27 168 27q20 -37 20 -154v-567q0 -133 14 -227q25 -145 84.5 -220t173.5 -75q150 0 222 45q41 199 41 487l2 561q0 70 20 127q23 14 49.5 18.5t106.5 4.5q-4 -213 -4 -385v-326q0 -322 -56 -553q-104 -127 -393 -127q-219 0 -314 113t-120 324 q-10 113 -10 217v389q0 153 -4 321zM313 1686q0 20 18.5 51.5t39.5 31.5q16 35 32 35q20 0 114.5 -68.5t150.5 -123.5q20 -16 26 -33v-2q0 -10 -14 -35q-23 -41 -39 -45q-27 10 -143.5 77.5t-159.5 90.5q-21 13 -25 21z" />
<glyph unicode="&#xda;" horiz-adv-x="1130" d="M113 1333q20 27 168 27q20 -37 20 -154v-567q0 -133 14 -227q25 -145 84.5 -220t173.5 -75q150 0 222 45q41 199 41 487l2 561q0 70 20 127q23 14 49.5 18.5t106.5 4.5q-4 -213 -4 -385v-326q0 -322 -56 -553q-104 -127 -393 -127q-219 0 -314 113t-120 324 q-10 113 -10 217v389q0 153 -4 321zM422 1548q27 33 37 41q66 59 158 118.5t116 59.5q27 -4 49.5 -40.5t30.5 -73.5q0 -18 -29 -33q-49 -23 -162.5 -81t-148.5 -73q-18 6 -34.5 38t-16.5 44z" />
<glyph unicode="&#xdb;" horiz-adv-x="1130" d="M113 1333q20 27 168 27q20 -37 20 -154v-567q0 -133 14 -227q25 -145 84.5 -220t173.5 -75q150 0 222 45q41 199 41 487l2 561q0 70 20 127q23 14 49.5 18.5t106.5 4.5q-4 -213 -4 -385v-326q0 -322 -56 -553q-104 -127 -393 -127q-219 0 -314 113t-120 324 q-10 113 -10 217v389q0 153 -4 321zM319 1536q78 90 205 217q14 23 60 23q37 -27 241 -224q-10 -29 -34.5 -54t-45.5 -25q-25 0 -45 18q-25 20 -78 75l-59 58q-70 -84 -139 -137q-6 -8 -16 -10l-11 -2q-62 16 -78 61z" />
<glyph unicode="&#xdc;" horiz-adv-x="1150" d="M98 1325q29 37 201 37q27 -47 27 -162v-559q0 -131 14 -223q49 -283 233 -283q143 0 207 43l-8 -6q39 201 39 477l2 555q0 68 23 129q29 18 62.5 23.5t129.5 5.5q-4 -213 -4 -391v-322q0 -317 -55 -545q-113 -135 -408 -135q-225 0 -324.5 114t-123.5 327 q-10 113 -11 215v383q0 149 -4 317zM311 1622q0 106 103 107q53 0 71.5 -24t16.5 -79q-4 -115 -101 -115q-49 0 -69.5 27t-20.5 84zM653 1622q0 106 103 107q53 0 71.5 -24t16.5 -79q-4 -115 -101 -115q-49 0 -69.5 27t-20.5 84z" />
<glyph unicode="&#xdd;" horiz-adv-x="966" d="M8 1323q0 14 21.5 19.5t93.5 5.5h119q31 -74 123 -273l116 -266l248 534q45 16 82 17q31 0 113 -8q6 -18 6 -32.5t-21 -68.5l-2 -2q2 0 1 -3t-3 -5q-33 -76 -162 -309q-94 -160 -133 -252q-20 -55 -26 -98v-293q0 -35 1 -90.5t1 -75.5v-94q-18 -23 -56 -30t-145 -7 q-20 49 -20 100v475q0 35 -3 43q-49 119 -108 232l-36 70l-44 86l-39 75zM356 1528q14 23 41 49q70 59 163 118.5t124 59.5q33 -6 61.5 -45t36.5 -76q0 -20 -41 -43q-29 -12 -89 -44l-77 -40h3q-109 -57 -144 -69h-12q-23 8 -51 51q-15 25 -15 39z" />
<glyph unicode="&#xdf;" horiz-adv-x="1038" d="M57 967q12 12 58 34q2 0 2 1.5t-2 1.5h2q0 43 2 55v-2q18 199 182 297q100 57 234 57q27 0 67 -4q152 -14 230.5 -97t80.5 -202q0 -100 -69 -162l-29 -14h4q-43 -29 -69.5 -49.5t-48 -52t-21.5 -62.5q0 -57 74 -123h-2q4 -4 12 -10t12 -10q68 -53 101 -86 q117 -113 116 -250q0 -147 -98 -230.5t-256 -83.5q-92 0 -157.5 25t-88.5 57q2 47 29 88q18 29 65 29q72 -41 138 -41q63 0 106 38t35 97q-10 68 -51 117q-31 37 -129 131l-19 19q-109 109 -108 210q0 131 198 256l-4 -2q41 45 41 101q0 63 -30.5 102t-85.5 47q-29 6 -56 6 q-4 0 -41 -4q-129 -25 -147 -245q-6 -98 -6 -218q0 -61 1 -172.5t1 -164.5q0 -227 2 -338q0 -76 -6 -105q-37 -29 -129 -28q-39 0 -65 9t-26 15v4q2 6 3 10q6 43 6 68v117q0 18 1 57t1 59v238q0 41 -1 125t-1 127q-58 64 -58 158z" />
<glyph unicode="&#xe0;" horiz-adv-x="829" d="M35 254q0 88 37 153.5t96 101.5t113.5 54.5t111.5 24.5q18 2 60 2q33 0 45 -2v100q0 72 -14.5 101.5t-61.5 29.5q-70 0 -205 -51q-37 -16 -76 -16q-31 33 -41 88l2 -2q-4 12 -4 26q0 12 6 27q39 35 129.5 67.5t188.5 34.5q39 0 72 -2q119 -8 168 -79.5t49 -211.5v-90 q0 -156 -2 -231q0 -25 -1 -92.5t-1 -83.5v-23q0 -23 14 -43t43 -14q-4 -57 -4 -88q-37 -55 -127 -58q-68 0 -123 60l-45 -31q-57 -29 -158 -29q-115 0 -193.5 71t-78.5 206zM244 1407q4 -6 22 -25l242 -235q23 4 43 27.5t20 48.5q0 10 -2 16q-184 264 -221 264 q-33 0 -68.5 -33.5t-35.5 -62.5zM252 270q0 -127 88 -133h12q39 0 80 17.5t60 42.5l-3 -2q0 -2 3 10q2 10 2 14q4 25 4 96v136h-21q-23 0 -63 -5h2q-164 -31 -164 -176z" />
<glyph unicode="&#xe1;" horiz-adv-x="829" d="M35 254q0 88 37 153.5t96 101.5t113.5 54.5t111.5 24.5q18 2 60 2q33 0 45 -2v100q0 72 -14.5 101.5t-61.5 29.5q-70 0 -205 -51q-37 -16 -76 -16q-31 33 -41 88l2 -2q-4 12 -4 26q0 12 6 27q39 35 129.5 67.5t188.5 34.5q39 0 72 -2q119 -8 168 -79.5t49 -211.5v-90 q0 -156 -2 -231q0 -25 -1 -92.5t-1 -83.5v-23q0 -23 14 -43t43 -14q-4 -57 -4 -88q-37 -55 -127 -58q-68 0 -123 60l-45 -31q-57 -29 -158 -29q-115 0 -193.5 71t-78.5 206zM252 270q0 -127 88 -133h12q39 0 80 17.5t60 42.5l-3 -2q0 -2 3 10q2 10 2 14q4 25 4 96v136h-21 q-23 0 -63 -5h2q-164 -31 -164 -176zM272 1219q0 6 4 18q193 268 238 268q39 0 81 -36.5t42 -69.5q-4 -6 -29 -31l-241 -238q-35 8 -65 35t-30 54z" />
<glyph unicode="&#xe2;" horiz-adv-x="829" d="M35 254q0 88 37 153.5t96 101.5t113.5 54.5t111.5 24.5q18 2 60 2q33 0 45 -2v100q0 72 -14.5 101.5t-61.5 29.5q-70 0 -205 -51q-37 -16 -76 -16q-31 33 -41 88l2 -2q-4 12 -4 26q0 12 6 27q39 35 129.5 67.5t188.5 34.5q39 0 72 -2q119 -8 168 -79.5t49 -211.5v-90 q0 -156 -2 -231q0 -25 -1 -92.5t-1 -83.5v-23q0 -23 14 -43t43 -14q-4 -57 -4 -88q-37 -55 -127 -58q-68 0 -123 60l-45 -31q-57 -29 -158 -29q-115 0 -193.5 71t-78.5 206zM176 1208q25 51 162 246q23 27 41 37q29 12 49 12q152 -164 221 -278q-45 -70 -86 -70 q-18 0 -39 25q-86 102 -123 166q-37 -63 -106 -156q-25 -33 -39 -33q-64 24 -80 51zM252 270q0 -127 88 -133h12q39 0 80 17.5t60 42.5l-3 -2q0 -2 3 10q2 10 2 14q4 25 4 96v136h-21q-23 0 -63 -5h2q-164 -31 -164 -176z" />
<glyph unicode="&#xe3;" horiz-adv-x="833" d="M35 254q0 88 37 153.5t96 101.5t113.5 54.5t111.5 24.5q18 2 60 2q33 0 45 -2v100q0 72 -14.5 101.5t-61.5 29.5q-70 0 -205 -51q-37 -16 -76 -16q-31 33 -41 88l2 -2q-4 12 -4 26q0 12 6 27q39 35 129.5 67.5t188.5 34.5q39 0 72 -2q119 -8 168 -79.5t49 -211.5v-90 q0 -156 -2 -231q0 -25 -1 -92.5t-1 -83.5v-23q0 -23 14 -43t43 -14q-4 -57 -4 -88q-37 -55 -127 -58q-68 0 -123 60l-45 -31q-57 -29 -158 -29q-115 0 -193.5 71t-78.5 206zM127 1231q66 193 201 192q37 0 69.5 -25.5t55.5 -51.5q33 -33 53 -33q55 0 78 80q8 20 24 20 q33 0 70 -61q-10 -70 -61.5 -127.5t-124.5 -57.5q-43 0 -75 28t-55 56q-29 29 -53 29q-47 -10 -76 -78q-12 -23 -22 -22q-33 0 -84 51zM252 270q0 -127 88 -133h12q39 0 80 17.5t60 42.5l-3 -2q0 -2 3 10q2 10 2 14q4 25 4 96v136h-21q-23 0 -63 -5h2q-164 -31 -164 -176z " />
<glyph unicode="&#xe4;" horiz-adv-x="829" d="M35 254q0 88 37 153.5t96 101.5t113.5 54.5t111.5 24.5q18 2 60 2q33 0 45 -2v100q0 72 -14.5 101.5t-61.5 29.5q-70 0 -205 -51q-37 -16 -76 -16q-31 33 -41 88l2 -2q-4 12 -4 26q0 12 6 27q39 35 129.5 67.5t188.5 34.5q39 0 72 -2q119 -8 168 -79.5t49 -211.5v-90 q0 -156 -2 -231q0 -25 -1 -92.5t-1 -83.5v-23q0 -23 14 -43t43 -14q-4 -57 -4 -88q-37 -55 -127 -58q-68 0 -123 60l-45 -31q-57 -29 -158 -29q-115 0 -193.5 71t-78.5 206zM139 1280q0 106 103 106q53 0 71.5 -23.5t16.5 -78.5q-4 -115 -101 -115q-49 0 -69.5 27t-20.5 84z M252 270q0 -127 88 -133h12q39 0 80 17.5t60 42.5l-3 -2q0 -2 3 10q2 10 2 14q4 25 4 96v136h-21q-23 0 -63 -5h2q-164 -31 -164 -176zM461 1280q0 106 102 106q53 0 71.5 -23.5t16.5 -78.5q-4 -115 -100 -115q-49 0 -69.5 27t-20.5 84z" />
<glyph unicode="&#xe5;" horiz-adv-x="829" d="M35 254q0 88 37 153.5t96 101.5t113.5 54.5t111.5 24.5q18 2 60 2q33 0 45 -2v100q0 72 -14.5 101.5t-61.5 29.5q-70 0 -205 -51q-37 -16 -76 -16q-31 33 -41 88l2 -2q-4 12 -4 26q0 12 6 27q39 35 129.5 67.5t188.5 34.5q39 0 72 -2q119 -8 168 -79.5t49 -211.5v-90 q0 -156 -2 -231q0 -25 -1 -92.5t-1 -83.5v-23q0 -23 14 -43t43 -14q-4 -57 -4 -88q-37 -55 -127 -58q-68 0 -123 60l-45 -31q-57 -29 -158 -29q-115 0 -193.5 71t-78.5 206zM197 1331q0 86 58 146.5t146 60.5h2q88 0 145.5 -61.5t57.5 -143.5q0 -88 -59.5 -146.5 t-147.5 -58.5q-84 0 -143 57.5t-59 145.5zM252 270q0 -127 88 -133h12q39 0 80 17.5t60 42.5l-3 -2q0 -2 3 10q2 10 2 14q4 25 4 96v136h-21q-23 0 -63 -5h2q-164 -31 -164 -176zM299 1333q0 -47 29.5 -78.5t75 -31.5t74 31.5t28.5 76.5t-28.5 79t-76.5 34q-45 0 -73.5 -33 t-28.5 -78z" />
<glyph unicode="&#xe6;" horiz-adv-x="1300" d="M47 262q0 143 105.5 242.5t257.5 99.5q80 0 92 -2v47q0 33 -4 74q-14 102 -125 102q-66 0 -178 -49v2q-47 -25 -86 -26q-39 57 -39 100q0 23 8 37q43 39 139 71.5t207 32.5q168 0 225 -106q94 106 260 106q156 0 235 -93t83 -249q0 -109 -15 -168q-18 -16 -66 -32.5 t-91 -20.5q-66 -4 -113 -4q-137 0 -227 8q2 -158 58 -224.5t165 -66.5q125 0 236 58q12 -35 18 -101q-2 -29 -33 -58.5t-67 -41.5q-80 -27 -193 -27q-184 0 -272 101q-123 -100 -334 -101q-113 4 -179.5 76t-66.5 213zM266 274q0 -139 96 -139q90 0 152 70q-14 125 -14 260 h-29q-23 0 -35 -2q-170 -27 -170 -189zM719 580q117 -10 209 -11q53 0 69 2q12 14 15 45q0 117 -28 170.5t-97 53.5q-63 0 -109.5 -62.5t-58.5 -197.5z" />
<glyph unicode="&#xe7;" horiz-adv-x="784" d="M49 467q0 285 154 426q109 100 291 100q86 0 156.5 -31.5t80.5 -56.5v-2q0 -55 -33 -110h-24q-25 0 -68 14q-55 25 -108 24q-12 0 -23 -2q-203 -18 -203 -352q0 -342 238 -342q90 0 188 49q18 -55 19 -78q-4 -49 -53 -88q-68 -47 -191 -47q-94 0 -163.5 20.5t-132 72 t-95.5 152.5t-33 251zM297 -371q0 20 27 27q90 29 124.5 53.5t34.5 65.5q0 39 -53 58.5t-121 19.5q10 68 25 88q80 4 129 -9q68 -16 110.5 -58t42.5 -99q0 -166 -272 -209q-20 2 -33.5 24.5t-13.5 38.5z" />
<glyph unicode="&#xe8;" horiz-adv-x="831" d="M51 449q0 283 109.5 413.5t298.5 130.5q141 0 220 -77.5t91 -215.5q4 -61 4 -98q0 -70 -10 -121q-47 -39 -160 -55q-96 -12 -264 -12h-72q2 -145 58.5 -208t158.5 -63q127 0 238 60q16 -49 20 -103q-2 -31 -43 -62.5t-90 -43.5h2q-76 -20 -159 -21q-188 0 -289 101 q-113 115 -113 375zM258 1407q4 -6 23 -25l241 -235q23 4 43.5 27.5t20.5 48.5q0 10 -2 16q-184 264 -222 264q-33 0 -68.5 -33.5t-35.5 -62.5zM272 561h58q135 0 196 6q27 6 31 8q8 29 8 62q0 4 -1 11t-1 11v21q-14 162 -125 162h-8q-59 -8 -104.5 -79t-53.5 -202z" />
<glyph unicode="&#xe9;" horiz-adv-x="831" d="M51 449q0 283 109.5 413.5t298.5 130.5q141 0 220 -77.5t91 -215.5q4 -61 4 -98q0 -70 -10 -121q-47 -39 -160 -55q-96 -12 -264 -12h-72q2 -145 58.5 -208t158.5 -63q127 0 238 60q16 -49 20 -103q-2 -31 -43 -62.5t-90 -43.5h2q-76 -20 -159 -21q-188 0 -289 101 q-113 115 -113 375zM272 561h58q135 0 196 6q27 6 31 8q8 29 8 62q0 4 -1 11t-1 11v21q-14 162 -125 162h-8q-59 -8 -104.5 -79t-53.5 -202zM301 1217q0 6 4 18q193 268 238 268q39 0 81 -36.5t42 -69.5q-4 -6 -29 -31l-242 -238q-35 8 -64.5 35t-29.5 54z" />
<glyph unicode="&#xea;" horiz-adv-x="831" d="M51 449q0 283 109.5 413.5t298.5 130.5q141 0 220 -77.5t91 -215.5q4 -61 4 -98q0 -70 -10 -121q-47 -39 -160 -55q-96 -12 -264 -12h-72q2 -145 58.5 -208t158.5 -63q127 0 238 60q16 -49 20 -103q-2 -31 -43 -62.5t-90 -43.5h2q-76 -20 -159 -21q-188 0 -289 101 q-113 115 -113 375zM205 1208q25 51 162 246q23 27 41 37q29 12 49 12q152 -164 221 -278q-45 -70 -86 -70q-18 0 -39 25q-86 102 -123 166q-37 -63 -106 -156q-25 -33 -39 -33q-64 24 -80 51zM272 561h58q135 0 196 6q27 6 31 8q8 29 8 62q0 4 -1 11t-1 11v21 q-14 162 -125 162h-8q-59 -8 -104.5 -79t-53.5 -202z" />
<glyph unicode="&#xeb;" horiz-adv-x="831" d="M51 449q0 283 109.5 413.5t298.5 130.5q141 0 220 -77.5t91 -215.5q4 -61 4 -98q0 -70 -10 -121q-47 -39 -160 -55q-96 -12 -264 -12h-72q2 -145 58.5 -208t158.5 -63q127 0 238 60q16 -49 20 -103q-2 -31 -43 -62.5t-90 -43.5h2q-76 -20 -159 -21q-188 0 -289 101 q-113 115 -113 375zM182 1280q0 106 103 106q53 0 71.5 -23.5t16.5 -78.5q-4 -115 -101 -115q-49 0 -69.5 27t-20.5 84zM272 561h58q135 0 196 6q27 6 31 8q8 29 8 62q0 4 -1 11t-1 11v21q-14 162 -125 162h-8q-59 -8 -104.5 -79t-53.5 -202zM504 1280q0 106 102 106 q53 0 71.5 -23.5t16.5 -78.5q-4 -115 -100 -115q-49 0 -69.5 27t-20.5 84z" />
<glyph unicode="&#xec;" horiz-adv-x="434" d="M-25 1407q4 -6 23 -25l242 -235q23 4 43 27.5t20 48.5q0 10 -2 16q-184 264 -221 264q-33 0 -69 -33.5t-36 -62.5zM92 915q27 57 187 58l18 -6q18 -37 18 -148v-686q0 -68 -28 -113q-12 -16 -44 -19t-149 -7v168q0 29 1 92t1 96v357q0 102 -4 208z" />
<glyph unicode="&#xed;" horiz-adv-x="434" d="M82 1217q0 6 4 18q193 268 238 268q39 0 80.5 -36.5t41.5 -69.5q-4 -6 -28 -31l-242 -238q-35 8 -64.5 35t-29.5 54zM94 915q27 57 187 58l18 -6q18 -37 18 -148v-686q0 -68 -28 -113q-12 -16 -44 -19t-149 -7v168q0 29 1 92t1 96v357q0 102 -4 208z" />
<glyph unicode="&#xee;" horiz-adv-x="434" d="M-16 1208q25 51 161 246q25 27 41 37q29 12 50 12q152 -164 221 -278q-45 -70 -86 -70q-18 0 -39 25q-86 102 -123 166q-37 -63 -107 -156q-25 -33 -39 -33q-63 24 -79 51zM94 915q27 57 187 58l16 -6q18 -37 18 -148v-686q0 -68 -28 -113q-10 -16 -42 -19t-149 -7v168 q0 29 1 92t1 96v357q0 102 -4 208z" />
<glyph unicode="&#xef;" horiz-adv-x="434" d="M-61 1262q0 115 120 114q63 0 86 -25.5t21 -84.5q-4 -123 -119 -123q-108 0 -108 119zM94 915q27 57 187 58l16 -6q18 -37 18 -148v-686q0 -68 -28 -113q-10 -16 -42 -19t-149 -7v168q0 29 1 92t1 96v357q0 102 -4 208zM256 1262q0 115 121 114q63 0 85.5 -25.5 t20.5 -84.5q-4 -123 -118 -123q-59 0 -84 29t-25 90z" />
<glyph unicode="&#xf0;" horiz-adv-x="942" d="M51 451q0 211 144 364q131 135 309 135q61 0 108 -12q-29 68 -67 119l-92 -53l-117 -66q-39 -18 -64 -2q-23 18 -22 61q0 47 35 95l143 79q-115 82 -258 101l-18 53l41 55q25 31 65 31q61 0 162.5 -46t171.5 -103q8 4 18.5 12t18.5 12q4 2 18.5 10.5t18.5 10.5h-4 q4 2 12 7t12 9q49 35 66 39q45 20 65 0h-4q23 -10 23 -49q0 -49 -9.5 -71.5t-42.5 -43.5l-88 -55q86 -115 139.5 -279t53.5 -338q0 -231 -119 -403q-111 -150 -299 -150q-193 0 -307 142q-113 152 -113 336zM279 463q0 -172 68.5 -249t148.5 -77q168 0 168 393 q0 115 -23 209l4 -4q-51 59 -139 60q-92 0 -160 -86q-67 -90 -67 -246z" />
<glyph unicode="&#xf1;" horiz-adv-x="946" d="M82 895q23 25 86 51q12 4 29 4q53 0 73 -43q57 41 121 62q68 23 133 22q180 0 242.5 -87t62.5 -277v-310q0 -131 5 -290q-35 -33 -199 -33q-23 43 -23 92v537q0 111 -30.5 155.5t-108.5 44.5q-88 0 -160 -80l6 7v-631q0 -63 -24 -99q-20 -16 -44 -20t-97 -6h-54 q4 217 4 403v344q1 91 -22 154zM188 1227q66 193 201 192q37 0 70 -25.5t55 -52.5q33 -33 53 -32q55 0 78 80q8 20 25 20q33 0 69 -61q-10 -70 -61 -127.5t-125 -57.5q-43 0 -75 28t-54 56q-29 29 -53 29q-47 -10 -76 -78q-12 -23 -23 -22q-33 0 -84 51z" />
<glyph unicode="&#xf2;" horiz-adv-x="940" d="M47 479q0 256 112.5 385t303.5 129q403 0 403 -501q0 -250 -113.5 -385.5t-295.5 -135.5q-410 0 -410 508zM246 1407q4 -6 22 -25l242 -235q23 4 43 27.5t20 48.5q0 10 -2 16q-184 264 -221 264q-33 0 -68.5 -33.5t-35.5 -62.5zM274 487q0 -365 187 -364q80 0 130 86 t50 276q0 352 -184 353q-80 0 -131.5 -86.5t-51.5 -264.5z" />
<glyph unicode="&#xf3;" horiz-adv-x="940" d="M47 479q0 256 112.5 385t303.5 129q403 0 403 -501q0 -250 -113.5 -385.5t-295.5 -135.5q-410 0 -410 508zM274 487q0 -365 187 -364q80 0 130 86t50 276q0 352 -184 353q-80 0 -131.5 -86.5t-51.5 -264.5zM332 1217q0 6 4 18q193 268 237 268q39 0 81 -36.5t42 -69.5 q-4 -6 -28 -31l-242 -238q-35 8 -64.5 35t-29.5 54z" />
<glyph unicode="&#xf4;" horiz-adv-x="940" d="M47 479q0 256 112.5 385t303.5 129q403 0 403 -501q0 -250 -113.5 -385.5t-295.5 -135.5q-410 0 -410 508zM242 1208q25 51 161 246q23 27 41 37q29 12 50 12q152 -164 221 -278q-45 -70 -86 -70q-18 0 -39 25q-86 102 -123 166q-37 -63 -107 -156q-25 -33 -38 -33 q-64 24 -80 51zM274 487q0 -365 187 -364q80 0 130 86t50 276q0 352 -184 353q-80 0 -131.5 -86.5t-51.5 -264.5z" />
<glyph unicode="&#xf5;" horiz-adv-x="940" d="M47 479q0 256 112.5 385t303.5 129q403 0 403 -501q0 -250 -113.5 -385.5t-295.5 -135.5q-410 0 -410 508zM162 1208q68 201 219 201q55 0 119 -59l18 -19q27 -31 37 -31q35 0 55 62q16 37 47 37q25 0 52.5 -25.5t35.5 -42.5q-10 -74 -66 -134t-138 -60q-29 0 -54.5 12 t-38 23.5t-36.5 37.5l-13 11q-25 25 -34 26q-31 -10 -60 -69q-16 -29 -41 -29q-43 0 -102 59zM274 487q0 -365 187 -364q80 0 130 86t50 276q0 352 -184 353q-80 0 -131.5 -86.5t-51.5 -264.5z" />
<glyph unicode="&#xf6;" horiz-adv-x="940" d="M47 479q0 256 112.5 385t303.5 129q403 0 403 -501q0 -250 -113.5 -385.5t-295.5 -135.5q-410 0 -410 508zM182 1262q0 115 121 114q63 0 86 -25.5t21 -85t-28 -91t-91 -31.5q-109 0 -109 119zM274 487q0 -365 187 -364q80 0 130 86t50 276q0 352 -184 353 q-80 0 -131.5 -86.5t-51.5 -264.5zM500 1262q0 115 121 114q63 0 85.5 -25.5t20.5 -84.5q-4 -123 -119 -123q-59 0 -83.5 29t-24.5 90z" />
<glyph unicode="&#xf7;" horiz-adv-x="1021" d="M84 477q2 78 16.5 113t51.5 35h786q0 -86 -14.5 -122t-55.5 -36h-764zM389 233q0 117 125 117q68 0 91.5 -26.5t21.5 -86t-29 -90t-96 -30.5q-63 0 -88 27.5t-25 88.5zM389 854q0 115 125 115q68 0 91.5 -25.5t21.5 -85t-29 -90.5t-96 -31q-63 0 -88 28t-25 89z" />
<glyph unicode="&#xf8;" horiz-adv-x="970" d="M61 -2q0 2 91 149q-84 127 -84 332q0 248 131 389q117 123 284 123q141 0 219 -57l15 20l26 39q12 18 26.5 29.5t29.5 11.5q31 -4 58.5 -27.5t31.5 -54.5l-86 -149q84 -121 84 -316q0 -229 -119 -383q-106 -135 -287 -135q-154 0 -233 60l-25 -37q-47 -76 -76 -68 q-29 4 -54.5 25.5t-31.5 48.5zM289 481q0 -88 16 -135l215 332q12 18 32.5 53t33.5 53q-39 53 -109 54q-84 0 -136 -88.5t-52 -268.5zM365 188q45 -68 116 -67q82 0 133.5 87t51.5 273q0 84 -19 146z" />
<glyph unicode="&#xf9;" horiz-adv-x="952" d="M100 330l19 334q0 123 -4 270q33 39 204 39q18 -63 19 -207l-21 -410q0 -123 33 -167t103 -44q96 -6 155 64v639q0 66 25 98q20 16 43.5 20.5t97.5 6.5h53q-4 -217 -4 -404v-344q0 -90 23 -153q-23 -23 -86 -52q-12 -4 -29 -4q-51 0 -74 45q-55 -41 -120 -63 q-68 -23 -134 -23q-176 8 -237.5 91.5t-65.5 263.5zM307 1407q4 -6 23 -25l241 -235q23 4 43.5 27.5t20.5 48.5q0 10 -2 16q-184 264 -221 264q-33 0 -69 -33.5t-36 -62.5z" />
<glyph unicode="&#xfa;" horiz-adv-x="952" d="M100 330l19 334q0 123 -4 270q33 39 204 39q18 -63 19 -207l-21 -410q0 -123 33 -167t103 -44q96 -6 155 64v639q0 66 25 98q20 16 43.5 20.5t97.5 6.5h53q-4 -217 -4 -404v-344q0 -90 23 -153q-23 -23 -86 -52q-12 -4 -29 -4q-51 0 -74 45q-55 -41 -120 -63 q-68 -23 -134 -23q-176 8 -237.5 91.5t-65.5 263.5zM328 1217q0 6 4 18q193 268 237 268q39 0 81 -36.5t42 -69.5q-4 -6 -28 -31l-242 -238q-35 8 -64.5 35t-29.5 54z" />
<glyph unicode="&#xfb;" horiz-adv-x="952" d="M100 330l19 334q0 123 -4 270q33 39 204 39q18 -63 19 -207l-21 -410q0 -123 33 -167t103 -44q96 -6 155 64v639q0 66 25 98q20 16 43.5 20.5t97.5 6.5h53q-4 -217 -4 -404v-344q0 -90 23 -153q-23 -23 -86 -52q-12 -4 -29 -4q-51 0 -74 45q-55 -41 -120 -63 q-68 -23 -134 -23q-176 8 -237.5 91.5t-65.5 263.5zM238 1208q25 51 161 246q23 27 41 37q27 12 49 12q152 -164 222 -278q-45 -70 -86 -70q-18 0 -39 25q-86 102 -123 166q-37 -63 -107 -156q-25 -33 -39 -33q-63 24 -79 51z" />
<glyph unicode="&#xfc;" horiz-adv-x="952" d="M100 330l19 334q0 123 -4 270q33 39 204 39q18 -63 19 -207l-21 -410q0 -123 33 -167t103 -44q96 -6 155 64v639q0 66 25 98q20 16 43.5 20.5t97.5 6.5h53q-4 -217 -4 -404v-344q0 -90 23 -153q-23 -23 -86 -52q-12 -4 -29 -4q-51 0 -74 45q-55 -41 -120 -63 q-68 -23 -134 -23q-176 8 -237.5 91.5t-65.5 263.5zM211 1280q0 106 102 106q53 0 71.5 -23.5t16.5 -78.5q-4 -115 -100 -115q-49 0 -69.5 27t-20.5 84zM532 1280q0 106 103 106q53 0 71.5 -23.5t16.5 -78.5q-4 -115 -100 -115q-49 0 -70 27t-21 84z" />
<glyph unicode="&#xfd;" horiz-adv-x="821" d="M6 -328l14 64q23 8 78.5 8t89.5 14l-2 -2q35 18 74 111.5t59 193.5l-2 2q-20 27 -43 97q-178 575 -245 764q12 31 50 43t124 12q16 0 35.5 -29.5t25.5 -58.5q31 -94 115 -391l47 -187q0 -6 2 -8q23 94 39 176q0 2 2 12.5t4 14.5l59 250l46 188q33 27 79 27q39 0 60 -2 q6 0 23.5 -1t21.5 -1q14 -29 14 -51.5t-10 -57.5q-115 -461 -266 -885q-147 -377 -322 -376q-147 -1 -172 73zM307 1159q0 4 6 21q59 86 135 177t101 91q59 0 104 -66q16 -20 17 -36q-4 -12 -31 -35h2l-238 -234l-18 -2q-33 6 -63 45q-15 23 -15 39z" />
<glyph unicode="&#xff;" horiz-adv-x="821" d="M6 -328l14 64q23 8 78.5 8t89.5 14l-2 -2q35 18 74 111.5t59 193.5l-2 2q-20 27 -43 97q-178 575 -245 764q12 31 50 43t124 12q16 0 35.5 -29.5t25.5 -58.5q31 -94 115 -391l16 -65l17 -70q8 -37 12 -54q39 152 49 197q33 150 59 250l46 188q33 27 79 27q39 0 60 -2 q6 0 23.5 -1t21.5 -1q14 -29 14 -51.5t-10 -57.5q-115 -461 -266 -885q-147 -377 -322 -376q-147 -1 -172 73zM170 1280q0 106 102 106q53 0 71.5 -23.5t16.5 -78.5q-4 -115 -100 -115q-49 0 -69.5 27t-20.5 84zM492 1280q0 106 102 106q53 0 71.5 -23.5t16.5 -78.5 q-4 -115 -100 -115q-49 0 -69.5 27t-20.5 84z" />
<glyph unicode="&#x152;" horiz-adv-x="1601" d="M55 670q0 428 217 606q125 104 320 104q211 0 319 -108v49l25 12q51 23 92 25h498q-4 -133 -53 -154q-37 -10 -146 -10h-215v-393h377q-10 -104 -30.5 -134t-69.5 -30h-277v-473q61 -6 148 -6q209 0 290 2q-4 -84 -22.5 -118t-59.5 -44q-61 -4 -178 -4q-199 0 -362 12 l-6 25q0 4 -4.5 13l-6.5 13v41q-117 -123 -333 -123q-274 0 -398.5 177.5t-124.5 517.5zM291 659q0 -264 82 -392t217 -128q139 0 219 132t80 413q0 535 -297 535q-133 0 -217 -139.5t-84 -417.5v-3z" />
<glyph unicode="&#x153;" horiz-adv-x="1437" d="M47 479q0 272 146 412q106 100 272 100q199 0 297 -131q102 131 293 131q154 0 232.5 -93t82.5 -249q0 -106 -14 -166q-16 -16 -64.5 -33.5t-91.5 -21.5q-33 -2 -115 -2q-158 0 -225 6q2 -156 58.5 -222.5t162.5 -66.5q123 0 238 62q14 -49 18 -107q-2 -27 -34.5 -57.5 t-67.5 -42.5q-84 -25 -191 -25q-176 0 -296 131q-109 -135 -295 -135q-201 0 -303.5 122t-102.5 388zM274 485q0 -365 185 -364q80 0 131 87t51 279q0 348 -182 349q-84 0 -134.5 -84.5t-50.5 -266.5zM864 580q102 -12 207 -13q51 0 72 4q10 14 14 43q0 117 -27.5 170.5 t-97.5 53.5q-145 0 -168 -258z" />
<glyph unicode="&#x178;" horiz-adv-x="966" d="M8 1323q0 14 21.5 19.5t93.5 5.5h119q31 -74 123 -273q74 -172 118 -266l246 534q45 16 82 17q31 0 113 -8q6 -18 6 -32.5t-21 -68.5l-2 -2q2 0 1 -3t-3 -5q-33 -76 -162 -309q-94 -160 -133 -252q-20 -55 -26 -96v-295q0 -35 1 -90.5t1 -75.5v-94q-18 -23 -56 -30 t-145 -7q-20 49 -20 100v475q0 35 -3 43q-49 119 -108 232l-36 70l-44 86l-39 75zM219 1622q0 106 103 107q53 0 71.5 -24t16.5 -79q-4 -115 -101 -115q-49 0 -69.5 27t-20.5 84zM561 1622q0 106 103 107q53 0 71.5 -24t16.5 -79q-4 -115 -101 -115q-49 0 -69.5 27t-20.5 84 z" />
<glyph unicode="&#x2c6;" horiz-adv-x="815" d="M176 1157q25 51 162 246q25 27 41 37q29 12 49 12q152 -164 221 -278q-45 -70 -86 -70q-18 0 -39 24q-86 102 -123 166q-37 -63 -106 -155q-25 -33 -39 -33q-64 24 -80 51z" />
<glyph unicode="&#x2dc;" horiz-adv-x="901" d="M164 1217q66 193 201 192q37 0 69.5 -24.5t54.5 -53.5q33 -33 54 -33q55 0 78 80q8 20 24 21q33 0 70 -62q-10 -70 -61.5 -127t-125.5 -57q-43 0 -74.5 27.5t-54.5 56.5q-29 29 -53 29q-47 -10 -76 -78q-12 -23 -22 -23q-33 1 -84 52z" />
<glyph unicode="&#x2000;" horiz-adv-x="933" />
<glyph unicode="&#x2001;" horiz-adv-x="1867" />
<glyph unicode="&#x2002;" horiz-adv-x="933" />
<glyph unicode="&#x2003;" horiz-adv-x="1867" />
<glyph unicode="&#x2004;" horiz-adv-x="622" />
<glyph unicode="&#x2005;" horiz-adv-x="466" />
<glyph unicode="&#x2006;" horiz-adv-x="311" />
<glyph unicode="&#x2007;" horiz-adv-x="311" />
<glyph unicode="&#x2008;" horiz-adv-x="233" />
<glyph unicode="&#x2009;" horiz-adv-x="372" />
<glyph unicode="&#x200a;" horiz-adv-x="102" />
<glyph unicode="&#x2010;" horiz-adv-x="598" d="M55 442q14 154 70 156q131 12 352 41q25 -2 64 -23q-10 -143 -90 -153h2q-207 -33 -332 -33q-33 0 -66 12z" />
<glyph unicode="&#x2011;" horiz-adv-x="598" d="M55 442q14 154 70 156q131 12 352 41q25 -2 64 -23q-10 -143 -90 -153h2q-207 -33 -332 -33q-33 0 -66 12z" />
<glyph unicode="&#x2012;" horiz-adv-x="598" d="M55 442q14 154 70 156q131 12 352 41q25 -2 64 -23q-10 -143 -90 -153h2q-207 -33 -332 -33q-33 0 -66 12z" />
<glyph unicode="&#x2013;" horiz-adv-x="999" d="M18 518q2 145 115 146h793v-78q-8 -86 -34 -120t-77 -34h-795q-2 33 -2 86z" />
<glyph unicode="&#x2014;" horiz-adv-x="1673" d="M47 457q0 106 29 127q57 37 153 37h1397q-2 -47 -3 -63.5t-7 -35t-19 -26.5q-47 -39 -147 -39h-1403z" />
<glyph unicode="&#x2018;" horiz-adv-x="382" d="M49 1147q0 20 2 29q8 78 44 157.5t79 126.5q39 39 86 39q41 0 72 -33q-68 -125 -72 -260l6 -6q4 -4 4 -6q12 -43 15 -64q0 -4 1 -10t1 -8v-2q-10 -33 -45 -56.5t-80 -23.5q-25 0 -35 2q-78 13 -78 115z" />
<glyph unicode="&#x2019;" horiz-adv-x="382" d="M49 1053q68 125 72 262l-6 6q-4 4 -4 6q-12 41 -15 59v25q14 35 50 58.5t79 23.5q18 0 31 -4q76 -18 76 -119q0 -18 -2 -24q-8 -76 -44 -157t-79 -126q-35 -37 -74 -43q-53 0 -84 33z" />
<glyph unicode="&#x201a;" horiz-adv-x="380" d="M12 -190q76 117 84 268q-8 6 -10 12q-12 49 -16 86l2 4q14 31 51 55.5t80 24.5q18 0 30 -4q78 -14 78 -123q0 -86 -48 -183t-103 -147v2q-31 -20 -41 -20q-6 -2 -27 -2q-45 0 -80 27z" />
<glyph unicode="&#x201c;" horiz-adv-x="700" d="M51 1147q0 20 2 29q8 76 44 156.5t79 127.5q39 39 86 39q41 0 72 -33q-68 -125 -72 -260l12 -12q2 -8 6.5 -30.5t6.5 -33.5q0 -4 1 -10t1 -8v-2q-10 -33 -45 -56.5t-80 -23.5q-25 0 -33 2q-80 13 -80 115zM367 1149q0 20 2 27q6 74 41.5 153.5t78.5 128.5q37 41 86 41 q43 0 74 -33q-68 -119 -74 -260q6 -4 15 -12q10 -37 14 -82v-2q-10 -33 -45 -56.5t-80 -23.5q-25 0 -35 2q-77 13 -77 117z" />
<glyph unicode="&#x201d;" horiz-adv-x="700" d="M51 1053q70 129 74 262l-12 12q-12 41 -15 59v25q14 35 50 58.5t79 23.5q18 0 31 -4q76 -18 76 -119q0 -18 -2 -24q-8 -78 -44 -158t-79 -125q-35 -37 -74 -43q-53 0 -84 33zM367 1053q63 117 69 264q-10 10 -14 16q0 8 -2 22.5t-4 22.5q0 4 -1 13.5t-3 13.5v4 q18 70 106 80q8 2 29 2q18 0 24 -2q78 -12 78 -119q0 -18 -2 -24q-8 -74 -45 -155t-78 -128q-31 -33 -73 -43q-53 0 -84 33z" />
<glyph unicode="&#x201e;" horiz-adv-x="700" d="M16 -186q82 137 84 262l-12 12q-6 12 -6 16q-6 37 -10 72l2 4q14 31 51 55.5t80 24.5q16 0 28 -4q80 -14 80 -121q0 -84 -48 -182t-101 -148v2q-35 -23 -41 -22h-25q-45 0 -82 29zM332 -186q74 123 82 264q-23 18 -23 53q0 86 58 107v-2l12 6h-6h2q2 0 4 2q35 12 71 12 q47 0 72 -35t25 -86q0 -90 -51.5 -190.5t-106.5 -143.5q-20 -16 -59 -16q-43 0 -80 29z" />
<glyph unicode="&#x2022;" horiz-adv-x="505" d="M80 539q0 174 186 174q102 0 136 -40t32 -128q-4 -88 -44 -136.5t-142 -48.5q-90 0 -129 43.5t-39 135.5z" />
<glyph unicode="&#x2026;" horiz-adv-x="1345" d="M102 111q0 127 140 127q76 0 101.5 -29t23.5 -94.5t-32 -100t-108 -34.5q-70 0 -97.5 31.5t-27.5 99.5zM530 111q0 127 140 127q76 0 101.5 -29t23.5 -94.5t-32 -100t-108 -34.5q-70 0 -97.5 31.5t-27.5 99.5zM969 111q0 127 139 127q76 0 101.5 -29t23.5 -94.5t-32 -100 t-107 -34.5q-70 0 -97.5 31.5t-27.5 99.5z" />
<glyph unicode="&#x202f;" horiz-adv-x="372" />
<glyph unicode="&#x2039;" horiz-adv-x="567" d="M51 498l4 4q37 57 162 233l164 232q43 -6 79 -41t38 -58q0 -43 -90.5 -178t-143.5 -201q53 -70 140.5 -203.5t87.5 -174.5q0 -23 -36 -60t-81 -43q-4 8 -242 344q-12 14 -33.5 45t-29.5 41q-19 42 -19 60z" />
<glyph unicode="&#x203a;" horiz-adv-x="567" d="M66 113q0 51 221 358q8 12 14 18q-55 76 -141 209t-86 174q0 23 27.5 47.5t50 36t43.5 17.5q45 -76 251 -367l29 -40q18 -26 23 -31q16 -37 16 -56l-4 -6q-53 -86 -250 -352l-80 -115q-16 6 -37.5 17.5t-49 37t-27.5 52.5z" />
<glyph unicode="&#x2044;" horiz-adv-x="1050" d="M137 -80q-4 4 -10 8l-6 4q-61 35 -66 60q125 231 516 887l258 436q27 41 45 41q16 0 46 -19q53 -31 59 -67l-512 -873l-252 -428q-33 -53 -57 -53q-17 0 -21 4z" />
<glyph unicode="&#x205f;" horiz-adv-x="466" />
<glyph unicode="&#x20ac;" horiz-adv-x="972" d="M-18 424q10 0 41 4l47 6q37 -248 173 -356.5t365 -108.5q174 0 254 68q47 39 53 98q-4 43 -28 84q-113 -68 -250 -67q-270 0 -334 305q51 4 142.5 14t140.5 16q45 4 57 43t6 115l-182 -18.5l-182 -18.5v47q0 35 4 101l430 43q45 6 57 45t6 112q-14 -2 -196.5 -18 t-270.5 -27q70 281 297 303q14 2 41 3q78 0 152 -33v2l12 -6q35 -16 55 -15h19q35 45 35 111q-20 39 -98 74.5t-199 35.5q-246 0 -393 -157q-125 -131 -160 -344l-19 -2q-39 -4 -63 -21q-25 -27 -12 -139q68 8 75 8q-2 -14 -2 -86v-61q-35 -4 -61 -21q-24 -26 -12 -139z" />
<glyph unicode="&#x2122;" horiz-adv-x="978" d="M45 1272v31q2 12 6 32q2 23 35 23h369q0 -37 -6 -62q-6 -23 -39 -30h-99v-295q0 -12 1 -30.5t1 -27.5v-47q-23 -18 -112 -18q-10 27 -11 47v371h-90q-24 0 -55 6zM434 860l23 270q2 29 7 84.5t7 79.5q0 23 -2 33v12q6 12 39 19q4 0 18.5 1t20.5 1h37q25 -47 39 -86 q4 -8 11 -29.5t11 -30.5q2 -6 12.5 -32.5t12.5 -30.5l-2 2q4 -16 10 -37q8 25 14 35q16 45 31 80q37 94 41 106l-2 -4q0 18 26 23q4 0 11 2q6 0 20.5 1t18.5 1h43q8 -23 8 -47q4 -66 14 -271q8 -92 12 -174q-18 -23 -112 -22q-14 18 -15 47q-2 20 -2 63q0 10 -1 33t-1 33v80 q-4 -12 -6 -17q-12 -23 -14 -34q-41 -111 -45 -121q-27 -10 -37 -10h-51l-27 70l-35 93q-2 -70 -10 -153q-2 -6 -2 -17.5t-2 -17.5q0 -4 -3 -16.5t-3 -16.5q-27 -14 -47 -14h-17q-4 0 -14 1t-16 1z" />
<glyph unicode="&#xe000;" horiz-adv-x="980" d="M0 980h980v-980h-980v980z" />
<glyph unicode="&#xfb01;" horiz-adv-x="972" d="M18 844q6 61 17.5 79.5t44.5 24.5q12 4 63 15q0 90 9 147v-2q8 98 44.5 169t92 106.5t112 52t117.5 16.5q88 4 195 -33q2 -2 10 -4t10 -4v2q51 -20 66 -37q10 -14 10 -39q-4 -25 -12 -47q-12 -29 -29 -47q-29 0 -72 14l-28 9q-76 27 -146 26q-152 0 -162 -205 q-2 -41 -2 -120q53 0 160 2t158 2q88 0 112 2l21 -6q18 -37 18 -148v-686q0 -68 -28 -113q-12 -16 -43 -19t-148 -7v168q0 29 1 92t1 96v465q-209 -4 -254 -4q0 -338 4 -760q0 -39 -22 -47q-53 -10 -129 -10q-29 0 -64 6q-2 12 -2 55v121q0 18 1 60.5t1 64.5v248 q0 45 -1 130t-1 132q-86 2 -125 33z" />
<glyph unicode="&#xfb02;" horiz-adv-x="956" d="M18 844q6 61 17.5 79.5t46.5 24.5q14 4 61 15q0 90 9 147v-2q10 129 73.5 210t136 106.5t158.5 27.5q84 4 197 -35q84 -31 92 -53q14 -45 14 -190v-973v-23q0 -23 15.5 -43t44.5 -14q-4 -57 -4 -88q-39 -55 -127 -58q-41 0 -84 29q-57 41 -58 109v966q0 88 -4 203 q-47 10 -84 10q-150 0 -160 -205q-2 -41 -2 -120h89q82 0 135 4q-4 -80 -16.5 -108.5t-43.5 -39.5l2 2q-16 -8 -22 -10q-39 -4 -146 -4q0 -338 4 -760q0 -39 -24 -47q-53 -10 -127 -10q-31 0 -66 6q-2 12 -2 55v121q0 18 1 60.5t1 64.5v248q0 45 -1 130t-1 132 q-86 4 -125 33z" />
<glyph unicode="&#xfb03;" horiz-adv-x="1552" d="M1206 1307q0 123 127 123q68 0 91 -28q22 -25 22 -81q0 -71 -29 -108q-27 -34 -96 -33q-61 0 -88 29.5t-27 97.5zM1212 915q27 57 187 58l16 -6q18 -37 18 -148v-686q0 -68 -28 -113q-10 -16 -42 -19t-149 -7v168q0 29 1 92t1 96v357q0 102 -4 208zM575 844 q8 59 19.5 76.5t44.5 27.5q6 2 25.5 6t35.5 9q0 90 9 147v-2q8 98 44.5 169t93 107.5t114 52t118.5 15.5q127 0 166 -43h2q10 -14 10 -41q-4 -25 -12 -45q-12 -29 -22 -39q-27 -14 -50 -6q-8 6 -18 6q-27 8 -74 8q-152 0 -162 -205q-2 -41 -2 -120h88q86 0 136 4 q-4 -80 -15.5 -108.5t-42.5 -39.5l2 2q-2 -2 -11 -6t-13 -4q-39 -4 -146 -4q0 -338 4 -760q0 -39 -24 -47q-53 -10 -127 -10q-33 0 -66 6q-2 12 -2 55v121q0 18 1 60.5t1 64.5v248q0 45 -1 130t-1 132q-86 4 -125 33zM16 844q8 59 19.5 76.5t44.5 27.5q6 2 25.5 6t35.5 9 q0 90 9 147v-2q8 98 44.5 169t93 107.5t114 52t118.5 15.5q127 0 166 -43h2q10 -14 10 -41q-4 -25 -12 -45q-12 -29 -22 -39q-27 -14 -50 -6q-8 6 -18 6q-27 8 -74 8q-152 0 -162 -205q-2 -41 -2 -120h88q86 0 136 4q-4 -80 -15.5 -108.5t-42.5 -39.5l2 2q-2 -2 -11 -6 t-13 -4q-39 -4 -146 -4q0 -338 4 -760q0 -39 -24 -47q-53 -10 -127 -10q-33 0 -66 6q-2 12 -2 55v121q0 18 1 60.5t1 64.5v248q0 45 -1 130t-1 132q-86 4 -125 33z" />
<glyph unicode="&#xfb04;" horiz-adv-x="1550" d="M1212 1384q16 39 64.5 51.5t138.5 12.5q14 -55 14 -199v-1048v-23q0 -23 15.5 -43t44.5 -14q-4 -57 -4 -88q-39 -55 -127 -58q-43 0 -82 29q-59 41 -60 109v1044q0 108 -4 227zM575 844q8 59 19.5 76.5t44.5 27.5q6 2 25.5 6t35.5 9q0 90 9 147v-2q8 98 44.5 169 t93 107.5t114 52t118.5 15.5q127 0 166 -43h2q10 -14 10 -41q-4 -25 -12 -45q-12 -29 -22 -39q-27 -14 -50 -6q-8 6 -18 6q-27 8 -74 8q-152 0 -162 -205q-2 -41 -2 -120h88q86 0 136 4q-4 -80 -15.5 -108.5t-42.5 -39.5l2 2q-2 -2 -11 -6t-13 -4q-39 -4 -146 -4 q0 -338 4 -760q0 -39 -24 -47q-53 -10 -127 -10q-33 0 -66 6q-2 12 -2 55v121q0 18 1 60.5t1 64.5v248q0 45 -1 130t-1 132q-86 4 -125 33zM16 844q8 59 19.5 76.5t44.5 27.5q6 2 25.5 6t35.5 9q0 90 9 147v-2q8 98 44.5 169t93 107.5t114 52t118.5 15.5q127 0 166 -43h2 q10 -14 10 -41q-4 -25 -12 -45q-12 -29 -22 -39q-27 -14 -50 -6q-8 6 -18 6q-27 8 -74 8q-152 0 -162 -205q-2 -41 -2 -120h88q86 0 136 4q-4 -80 -15.5 -108.5t-42.5 -39.5l2 2q-2 -2 -11 -6t-13 -4q-39 -4 -146 -4q0 -338 4 -760q0 -39 -24 -47q-53 -10 -127 -10 q-33 0 -66 6q-2 12 -2 55v121q0 18 1 60.5t1 64.5v248q0 45 -1 130t-1 132q-86 4 -125 33z" />
</font>
</defs>
</svg>
